<svg xmlns="http://www.w3.org/2000/svg" fill="#fff" width="246" height="77" viewBox="0 0 246 77" class="svg replaced-svg"><path d="M104.4 11.7c-0.8-2.7-2.2-4.7-4.1-5.9 -1.9-1.3-4.4-2-7.5-2 -3.1 0-5.9 0.7-8.2 2 -2.4 1.3-4.5 3.3-6.3 6.1 -1.8 2.8-3.4 6.4-4.7 10.8 -1.3 4.4-2.6 9.7-3.7 16 -1.1 6.3-1.8 11.6-2 16.1 -0.2 4.4 0.1 8 0.9 10.8 0.8 2.8 2.2 4.7 4.1 5.9 1.9 1.2 4.5 1.8 7.6 1.8 3.1 0 5.8-0.6 8.2-1.8 2.3-1.2 4.4-3.1 6.2-5.8l0 0.2c0 0-1.2 10.6-14.3 11.2 -3.4 0.2-6.5-0.6-9.1-2.1 -0.4-0.3-1.3-0.2-1.7 0.1 -0.7 0.6-1.6 0.9-2.6 0.9H53.5c-1.4 0-2.7-0.8-3.4-2.1 -0.6-1.2-2.1-1.2-2.7 0 -0.6 1.2-2.1 2.1-3.4 2.1H32.1h-1.5H15.1c-7.9-0.2-11-3.8-11-3.8l26.5 0h1.5 11.9l8.4-20.2 1.1 20.2H67.1l-5-34L78.2 5.1H64.5l-7.4 19.4L56.6 5.1H43.3h-0.4H15.9c0-0.1 1-3.5 9.1-3.8 5.7-0.1 17.9 0 17.9 0h0.4 13.3c1.1 0 2.1 0.5 2.8 1.3 0.6 0.7 1.6 0.7 2.2 0 0.8-0.8 1.8-1.3 2.8-1.3h13.7c1.1 0 2 0.4 2.7 1 0.4 0.4 1.3 0.5 1.8 0.2 9.1-4.4 15-2 17.7-0.3C105.9 5.7 104.4 11.7 104.4 11.7M82.5 38.6c0.8-4.5 1.5-8.2 2.1-11.2 0.6-3 1.2-5.4 1.8-7.1 0.6-1.8 1.2-3 1.9-3.7 0.7-0.7 1.5-1 2.4-1 0.9 0 1.6 0.3 2 1 0.4 0.7 0.6 1.9 0.6 3.7 0 1.8-0.2 4.1-0.7 7.1 -0.4 2.9-1 6.7-1.8 11.2 -0.8 4.5-1.5 8.3-2.1 11.3 -0.6 2.9-1.2 5.3-1.8 7 -0.6 1.8-1.2 3-1.9 3.7 -0.6 0.7-1.4 1-2.3 1 -0.9 0-1.6-0.3-2.1-1 -0.4-0.7-0.6-1.9-0.6-3.7 0-1.8 0.3-4.1 0.7-7C81.1 46.9 81.7 43.1 82.5 38.6M42.8 8.1l4.6 30L32.9 67.3l1.7-9.5h-16.2l2.4-13.3h14.6l2.4-13.7H23.2l2-11.5h15.6L42.8 8.1z"></path><path d="M234.5 27.5v-3.6h-1.2v-0.8h3.4v0.8h-1.2v3.6H234.5zM241 27.5l-0.1-1.7c0-0.5 0-1.2 0-1.8 -0.2 0.6-0.3 1.2-0.5 1.7L239.8 27.4h-0.8l-0.5-1.7c-0.1-0.5-0.3-1.2-0.4-1.7 0 0.6-0.1 1.3-0.1 1.8l-0.1 1.7h-0.9l0.3-4.5h1.3l0.4 1.5c0.1 0.5 0.3 1.1 0.4 1.6 0.1-0.5 0.3-1.1 0.4-1.6l0.5-1.5h1.3l0.2 4.5H241z"></path><path d="M200.7 9.7c0.5 0 0.8 0.4 0.7 0.9l-2.3 12.8h4.6c0.5 0 0.8 0.4 0.7 0.9l-1.2 6.7c-0.1 0.3-0.4 0.7-0.8 0.7h-4.8l-5.5 31.4c-0.3 1.7 0 2.4 0.4 2.7 0.2 0.2 0.7 0.3 1.7 0.3h0.9l1.1-0.1c0.6-0.1 0.9 0.3 0.8 0.9l-1.1 6.5c0 0.2-0.3 0.5-0.5 0.6 -0.8 0.3-1.5 0.5-2.4 0.6 -0.8 0.1-1.6 0.2-2.5 0.2 -2.9 0-4.9-1.1-5.7-3.4 -0.7-2.1-0.7-4.9-0.1-8.1l5.5-31.6h-3.8c-0.5 0-0.8-0.4-0.7-0.9l1.2-6.7c0.1-0.3 0.4-0.7 0.8-0.7h4l2.3-13.1c0.1-0.3 0.4-0.6 0.8-0.6H200.7zM175.2 40.8c0.3-0.6 0.6-1.6 0.8-2.9 0.5-2.7 0.1-4.5-0.8-5.5 -1-1.1-2.7-1.7-5.2-1.7 -2.8 0-4.9 1.1-6.4 3.2 -0.8 1.2-1.6 3-2.2 5.5 -0.1 0.3-0.5 0.6-0.8 0.6h-5.4c-0.5 0-0.8-0.4-0.7-0.9 1.2-6.1 3.3-10.6 6.6-13.1 3.2-2.5 6.6-3.7 10.3-3.7 4.2 0 7.5 1.1 9.8 3.5 2.4 2.4 3 6.2 2.2 10.9l-4.9 28.3c-0.1 0.8-0.1 1.4 0 1.7 0.2 0.2 0.4 0.2 0.7 0.2 0.2 0 0.5 0 0.8 0 0.3-0.1 0.6-0.1 1-0.2 0.6-0.1 1 0.2 0.9 0.9l-1.1 6.1c0 0.2-0.3 0.5-0.5 0.6 -1 0.4-1.7 0.6-2.3 0.7 -0.5 0.1-1.2 0.2-2.1 0.2 -2.4 0-3.9-1.3-4.5-3.6 -0.2-0.7-0.3-1.5-0.3-2.5 -1.4 1.5-3 2.9-4.8 4.1 -2.6 1.7-5.3 2.6-8.1 2.6 -3.5 0-6.1-1.5-7.8-4.5 -1.6-3-2-6.6-1.3-10.9 0.8-4.7 2.5-8.3 5-11 2.6-2.6 5.6-4.2 9.1-4.9l9.5-1.7C173.8 42.5 174.6 41.9 175.2 40.8M166.6 65.2c3.4-2.1 5.5-5.5 6.4-10.4l0.9-5c-0.5 0.3-1.1 0.5-1.7 0.8 -1.2 0.4-2.4 0.8-3.6 1l-3.6 0.6c-2.1 0.4-3.7 1-4.7 1.7 -1.8 1.3-3 3.4-3.6 6.4 -0.4 2.3-0.1 3.9 0.7 5.1 0.9 1.2 2 1.8 3.4 1.8C162.6 67.1 164.5 66.5 166.6 65.2M155.1 5.1c0.5 0 0.8 0.4 0.7 0.9l-11.8 67.4c-0.1 0.3-0.4 0.6-0.8 0.6h-5.8c-0.5 0-0.8-0.4-0.7-0.9l11.8-67.4c0.1-0.3 0.4-0.6 0.8-0.6H155.1zM127.6 14.5h-12.1l-3.8 21.8h11.8c2.7 0 5-0.8 6.9-2.4 1.9-1.6 3.3-4.4 4-8.7 0.8-4.9 0.1-7.9-1.8-9.4C131.6 14.9 129.9 14.5 127.6 14.5M131.1 5.1c4.4 0 7.8 1.8 9.9 5.5 2.1 3.6 2.5 8.5 1.5 14.7 -0.9 5.4-2.9 10.1-6 14.1 -3.1 4.1-7.2 6.1-12.2 6.1h-14.2l-4.8 27.8c-0.1 0.3-0.4 0.7-0.8 0.7h-6.4c-0.5 0-0.8-0.4-0.7-0.9l11.8-67.4c0.1-0.3 0.4-0.6 0.8-0.6H131.1zM232.4 40.5c0 2.3-0.5 5.9-1.4 10.9 -0.1 0.3-0.4 0.6-0.8 0.6h-24.5c-0.7 4.6-0.5 8.3 0.4 11 0.9 2.7 2.8 4 5.7 4 2.7 0 5.2-1.3 7.3-4 1.3-1.6 2.3-3.4 3.1-5.5 0.1-0.2 0.5-0.5 0.7-0.5h5.7c0.5 0 0.9 0.4 0.7 0.9 -0.5 1.9-1.4 4-2.6 6.2 -1.2 2.2-2.5 4.1-3.9 5.6 -2.3 2.5-4.8 4.3-7.7 5.2 -1.6 0.5-3.3 0.8-5.1 0.8 -4.6 0-8.1-2.4-10.4-7.1 -2.3-4.7-2.7-11.1-1.2-19.2 1.4-8 4.1-14.5 8-19.6 4-5.1 8.5-7.7 13.6-7.7 2.6 0 5 0.9 7.1 2.6 2.1 1.7 3.6 4 4.3 6.7C232.4 34.2 232.6 37.2 232.4 40.5M224.6 36.4c-0.8-3.7-2.8-5.4-6.1-5.4 -2.4 0-4.6 1.2-6.8 3.8 -2 2.4-3.5 5.5-4.3 9.2h17.5C225.1 40.8 225.1 38.3 224.6 36.4"></path></svg>