<?xml version="1.0" encoding="UTF-8"?>
<svg id="Layer_2" data-name="Layer 2" xmlns="http://www.w3.org/2000/svg" viewBox="0 0 34.52 28.04">
  <defs>
    <style>
      .cls-1 {
        fill: #fff;
      }
    </style>
  </defs>
  <g id="Layer_1-2" data-name="Layer 1">
    <path class="cls-1" d="M34.52,3.33c-.98,1.43-2.16,2.65-3.55,3.66,.01,.2,.02,.51,.02,.92,0,1.9-.28,3.79-.83,5.68-.55,1.89-1.4,3.71-2.53,5.44-1.13,1.74-2.48,3.27-4.04,4.61-1.56,1.34-3.45,2.4-5.65,3.2-2.21,.8-4.56,1.19-7.07,1.19-3.96,0-7.58-1.06-10.86-3.18,.51,.06,1.08,.09,1.71,.09,3.29,0,6.21-1.01,8.78-3.02-1.53-.03-2.91-.5-4.12-1.41-1.21-.91-2.04-2.08-2.5-3.49,.48,.07,.93,.11,1.34,.11,.63,0,1.25-.08,1.86-.24-1.64-.34-2.99-1.15-4.06-2.44s-1.61-2.79-1.61-4.5v-.09c.99,.55,2.06,.85,3.2,.9-.96-.64-1.73-1.48-2.3-2.52-.57-1.04-.85-2.16-.85-3.37,0-1.28,.32-2.47,.96-3.57,1.77,2.18,3.92,3.92,6.45,5.22s5.25,2.03,8.14,2.18c-.12-.55-.18-1.09-.18-1.62,0-1.96,.69-3.62,2.07-5s3.05-2.07,5-2.07,3.77,.75,5.17,2.23c1.59-.31,3.09-.88,4.49-1.71-.54,1.68-1.58,2.98-3.11,3.9,1.36-.15,2.72-.51,4.07-1.1Z"/>
  </g>
</svg>