<?xml version="1.0" encoding="UTF-8"?>
<svg id="Layer_2" data-name="Layer 2" xmlns="http://www.w3.org/2000/svg" viewBox="0 0 32.46 39.25">
  <defs>
    <style>
      .cls-1 {
        fill: #fff;
      }
    </style>
  </defs>
  <g id="Layer_1-2" data-name="Layer 1">
    <path class="cls-1" d="M32.46,27.95c0,3.42-.19,5.97-.57,7.67-.21,.86-.63,1.58-1.27,2.17s-1.39,.92-2.23,1.01c-2.69,.31-6.74,.46-12.16,.46s-9.47-.15-12.16-.46c-.85-.09-1.6-.42-2.25-1.01-.65-.58-1.07-1.31-1.26-2.17-.38-1.63-.57-4.19-.57-7.67s.19-5.97,.57-7.67c.2-.86,.63-1.58,1.27-2.17s1.39-.93,2.26-1.03c2.67-.29,6.72-.44,12.13-.44s9.47,.15,12.16,.44c.85,.1,1.6,.45,2.25,1.03s1.07,1.31,1.26,2.17c.38,1.64,.57,4.19,.57,7.67ZM6.92,22.5h2.34v-2.06H2.43v2.06h2.3v12.46h2.19v-12.46ZM10.6,0h2.23l-2.65,8.74v5.94h-2.19v-5.94c-.2-1.08-.65-2.63-1.34-4.64-.54-1.5-1.01-2.87-1.42-4.1h2.32l1.55,5.76L10.6,0Zm2.63,34.96h1.95v-10.82h-1.95v8.28c-.44,.61-.85,.92-1.25,.92-.26,0-.42-.15-.46-.46-.01-.04-.02-.3-.02-.77v-7.97h-1.95v8.56c0,.72,.06,1.25,.17,1.6,.18,.54,.6,.81,1.27,.81s1.45-.45,2.23-1.34v1.18ZM18.71,7.29v3.83c0,1.18-.21,2.04-.61,2.58-.56,.74-1.33,1.12-2.32,1.12s-1.75-.37-2.3-1.12c-.41-.55-.61-1.42-.61-2.58v-3.83c0-1.17,.21-2.02,.61-2.56,.55-.75,1.32-1.12,2.3-1.12s1.77,.37,2.32,1.12c.41,.54,.61,1.39,.61,2.56Zm-1.99,4.21V6.9c0-1.01-.31-1.51-.94-1.51s-.94,.5-.94,1.51v4.6c0,1.02,.31,1.53,.94,1.53s.94-.51,.94-1.53Zm5.91,20.22v-4.31c0-1.07-.07-1.79-.2-2.17-.25-.82-.77-1.23-1.56-1.23-.73,0-1.41,.39-2.04,1.18v-4.75h-1.95v14.52h1.95v-1.05c.66,.8,1.34,1.2,2.04,1.2,.79,0,1.31-.4,1.56-1.2,.13-.39,.2-1.12,.2-2.19Zm-1.95-4.47v4.62c0,.98-.28,1.47-.85,1.47-.34,0-.67-.16-.99-.48v-6.59c.32-.32,.65-.48,.99-.48,.57,0,.85,.49,.85,1.47ZM26.04,3.75V14.68h-1.99v-1.21c-.77,.91-1.53,1.36-2.26,1.36-.67,0-1.1-.27-1.29-.81-.12-.35-.17-.9-.17-1.64V3.75h1.99V11.78c0,.48,0,.74,.02,.77,.04,.32,.2,.48,.46,.48,.39,0,.81-.31,1.25-.94V3.75h1.99Zm3.99,27.75v-.29h-1.99c0,.75-.01,1.19-.04,1.34-.1,.53-.39,.79-.88,.79-.67,0-1.01-.5-1.01-1.51v-1.91h3.92v-2.26c0-1.15-.2-2-.59-2.54-.57-.75-1.34-1.12-2.32-1.12s-1.77,.37-2.34,1.12c-.41,.54-.61,1.39-.61,2.54v3.79c0,1.15,.21,2,.63,2.54,.57,.74,1.36,1.12,2.37,1.12s1.84-.39,2.37-1.16c.26-.39,.42-.79,.46-1.18,.03-.13,.04-.55,.04-1.27Zm-1.95-4.23v1.01h-1.97v-1.01c0-.99,.33-1.49,.99-1.49s.99,.5,.99,1.49Z"/>
  </g>
</svg>