<svg fill='white' version="1.1" id="Layer_1" xmlns="http://www.w3.org/2000/svg" xmlns:xlink="http://www.w3.org/1999/xlink" x="0px" y="0px" width="300px" height="auto" viewBox="0 0 344.578 155.422" enable-background="new 0 0 344.578 155.422" xml:space="preserve">
                <g>
                  <polygon points="128.792,59.445 141.96,59.445 141.96,37.339 154.145,37.339 154.145,29.889 116.606,29.889 116.606,37.339 
		128.792,37.339 	"></polygon>
                  <polygon points="173.153,47.647 187.955,47.647 187.955,59.445 201.123,59.445 201.123,29.889 187.955,29.889 187.955,40.197 
		173.153,40.197 173.153,29.889 159.989,29.889 159.989,59.445 173.153,59.445 	"></polygon>
                  <polygon points="243.01,52.242 220.738,52.242 220.738,48.27 241.424,48.27 241.424,41.066 220.738,41.066 220.738,37.092 
		243.01,37.092 243.01,29.889 207.572,29.889 207.572,59.445 243.01,59.445 	"></polygon>
                  <path d="M290.502,78.107v-11.59h-15.777v47.391h-17.865c5.85-2.403,10.506-6.882,12.293-13.799l-14.752-0.002
		c-1.488,3.524-5.197,5.288-9,5.288c-6.684,0-10.488-4.359-10.768-10.948h35.355c0.74-16.331-7.887-29.32-25.148-29.32
		c-14.197,0-25.979,10.576-25.979,25.331c0,11.657,5.58,19.806,14.574,23.45h-26.973c6.088-2.419,10.723-7.077,10.723-15.006
		c0-3.99-2.504-11.041-12.248-12.992c-7.236-1.577-17.816-2.414-17.816-6.958c0-3.342,4.18-3.618,6.775-3.618
		c1.949,0,3.713,0.369,5.012,1.204c1.299,0.837,2.041,2.138,2.041,4.179h14.566c-0.555-12.53-11.596-15.59-22.174-15.59
		c-9.467,0-21.992,3.156-21.992,14.751c0,12.996,12.433,13.271,22.361,15.777c2.785,0.651,7.701,1.388,7.701,5.103
		c0,3.804-4.361,5.103-7.422,5.103c-2.227,0-4.361-0.556-5.846-1.668c-1.574-1.21-2.6-2.971-2.6-5.383h-15.03
		c0.28,8.136,4.679,12.728,10.627,15.099h-27.068c8.97-3.869,14.672-12.6,14.672-23.263c0-14.475-10.486-25.519-25.424-25.519
		s-25.33,11.044-25.33,25.519c0,10.663,5.652,19.394,14.595,23.263h-17.846V48.424H98.967v65.484h-9.082
		c-5.042,4.164-11.467,6.871-18.873,7.764h219.474v-6.997h0.014l0.002-27.462c1.773-11.19,7.205-18.908,22.941-18.908
		c-7.744,1.861-14.533,6.143-17.303,14.751c16.043,5.951,23.092-8.417,24.594-20.091C315.725,66.725,296.094,53.496,290.502,78.107z
		 M244.84,75.796c5.291,0,9.098,4.457,9.375,9.836h-19.582C235.561,79.786,239.273,75.796,244.84,75.796z M143.323,77.188
		c7.331,0,9.648,7.333,9.648,13.457c0,6.121-2.317,13.36-9.648,13.36c-7.333,0-9.558-7.239-9.558-13.36
		C133.765,84.521,135.99,77.188,143.323,77.188z"></path>
                  <path d="M95.814,88.974H78.556c-0.649,7.607-5.288,12.248-13.363,12.248c-11.131,0-15.399-9.835-15.399-19.671
		c0-9.835,4.269-19.671,15.399-19.671c7.24,0,12.436,3.525,13.363,10.205h17.258c-0.176-6.021-2.491-11.064-6.073-15.01
		c0.001-0.004,0.001-0.007,0.001-0.012c0.371-3.783,0.829-8.883-2.936-13.814c-1.222-0.994-2.469-1.937-3.755-2.839
		c0.305,3.636-1.53,6.166-3.037,9.669c-0.009,0.021-0.023,0.031-0.031,0.05c-2.055-0.924-4.214-1.648-6.417-2.162
		c-0.038-0.073-0.074-0.14-0.113-0.214c-1.774-3.361-4.195-7.866-10.044-9.908c-1.563-0.153-3.123-0.25-4.693-0.298
		c2.251,2.857,2.115,5.975,2.776,9.714c-2.585,0.282-5.03,0.833-7.326,1.622c-0.016-0.009-0.03-0.017-0.046-0.025
		c-3.319-1.849-7.803-4.302-13.82-2.82c-1.394,0.725-2.757,1.495-4.097,2.309c3.418,1.159,5.007,3.811,7.566,6.56
		c-1.748,1.544-3.307,3.288-4.675,5.193c-3.772,0.322-8.789,0.832-12.903,5.379c-0.748,1.378-1.448,2.776-2.104,4.203
		c3.464-0.945,6.255,0.345,9.883,1.193c-0.643,2.296-1.08,4.697-1.289,7.183c-0.043,0.028-0.081,0.054-0.123,0.083
		c-3.139,2.131-7.335,5.018-8.714,11.058c0.021,1.565,0.098,3.127,0.222,4.691c2.593-2.553,5.708-2.751,9.362-3.823
		c0.002,0,0.002,0,0.003,0c0.497,2.295,1.193,4.495,2.082,6.575c-0.056,0.117-0.106,0.226-0.162,0.346
		c-1.631,3.43-3.786,8.056-1.917,13.972c0.812,1.34,1.667,2.649,2.565,3.937c0.943-3.519,3.527-5.268,6.133-8.046
		c0.039-0.041,0.084-0.058,0.123-0.096c1.564,1.583,3.297,3.001,5.188,4.22c0.003,0.022,0.007,0.043,0.01,0.066
		c0.554,3.753,1.334,8.789,6.172,12.654c1.416,0.664,2.854,1.272,4.319,1.84c-1.174-3.443,0.004-6.335,0.624-10.09
		c0.003-0.015,0.01-0.024,0.013-0.039c2.219,0.434,4.55,0.663,6.987,0.663C82.362,116.067,94.886,106.045,95.814,88.974z"></path>
                </g>
              </svg>