<?xml version="1.0" encoding="utf-8"?>
<!-- Generator: Adobe Illustrator 27.6.1, SVG Export Plug-In . SVG Version: 6.00 Build 0)  -->
<svg version="1.1" id="Layer_1" xmlns="http://www.w3.org/2000/svg" xmlns:xlink="http://www.w3.org/1999/xlink" x="0px" y="0px"
	 viewBox="0 0 400 400" style="enable-background:new 0 0 400 400;" xml:space="preserve">
<g>
	<path fill="white" d="M396,200c0,38.96-0.43,65.93-1.28,80.9c-1.7,35.39-12.25,62.78-31.65,82.18c-19.39,19.39-46.79,29.94-82.18,31.64
		c-14.97,0.85-41.94,1.28-80.9,1.28c-38.96,0-65.93-0.43-80.9-1.28c-35.39-1.7-62.78-12.25-82.18-31.64
		c-19.4-19.4-29.95-46.79-31.65-82.18C4.42,265.93,4,238.96,4,200c0-38.96,0.42-65.93,1.28-80.9c1.7-35.39,12.25-62.78,31.65-82.18
		c19.4-19.4,46.79-29.94,82.18-31.65C134.07,4.43,161.04,4,200,4c38.96,0,65.93,0.43,80.9,1.28c35.39,1.7,62.78,12.25,82.18,31.65
		c19.4,19.4,29.94,46.79,31.65,82.18C395.57,134.07,396,161.04,396,200z M219.52,39.09c-11.83,0.09-18.33,0.13-19.52,0.13
		c-1.19,0-7.7-0.04-19.52-0.13c-11.83-0.08-20.8-0.08-26.92,0c-6.12,0.09-14.34,0.34-24.63,0.77c-10.3,0.43-19.06,1.28-26.29,2.55
		c-7.23,1.28-13.31,2.85-18.25,4.72c-8.51,3.41-15.99,8.34-22.46,14.8c-6.47,6.47-11.4,13.95-14.8,22.46
		c-1.87,4.94-3.45,11.02-4.72,18.25c-1.28,7.23-2.13,15.99-2.55,26.29c-0.43,10.3-0.68,18.5-0.76,24.63
		c-0.09,6.13-0.09,15.1,0,26.92c0.08,11.83,0.13,18.33,0.13,19.52c0,1.19-0.04,7.7-0.13,19.52c-0.09,11.83-0.09,20.8,0,26.92
		c0.08,6.12,0.34,14.34,0.76,24.63c0.42,10.3,1.28,19.06,2.55,26.29c1.28,7.23,2.85,13.31,4.72,18.25
		c3.4,8.51,8.33,15.99,14.8,22.46c6.46,6.47,13.95,11.4,22.46,14.8c4.93,1.87,11.01,3.44,18.25,4.72
		c7.23,1.28,15.99,2.13,26.29,2.55c10.29,0.43,18.5,0.68,24.63,0.77c6.12,0.09,15.1,0.09,26.92,0c11.82-0.08,18.33-0.13,19.52-0.13
		c1.19,0,7.7,0.04,19.52,0.13c11.82,0.09,20.8,0.09,26.92,0c6.12-0.08,14.33-0.34,24.63-0.77c10.29-0.42,19.05-1.28,26.29-2.55
		c7.23-1.28,13.31-2.85,18.25-4.72c8.51-3.4,15.99-8.33,22.46-14.8c6.46-6.47,11.4-13.95,14.8-22.46
		c1.87-4.93,3.45-11.01,4.72-18.25c1.28-7.23,2.13-15.99,2.55-26.29c0.42-10.29,0.68-18.5,0.77-24.63c0.08-6.12,0.08-15.1,0-26.92
		c-0.09-11.82-0.13-18.33-0.13-19.52c0-1.19,0.04-7.7,0.13-19.52c0.08-11.82,0.08-20.8,0-26.92c-0.09-6.12-0.34-14.33-0.77-24.63
		c-0.43-10.29-1.28-19.05-2.55-26.29c-1.28-7.23-2.85-13.31-4.72-18.25c-3.4-8.51-8.34-15.99-14.8-22.46
		c-6.47-6.46-13.95-11.4-22.46-14.8c-4.94-1.87-11.02-3.45-18.25-4.72c-7.23-1.28-15.99-2.13-26.29-2.55
		c-10.3-0.42-18.5-0.68-24.63-0.77C240.32,39.01,231.35,39.01,219.52,39.09z M271.2,128.8c19.56,19.57,29.35,43.3,29.35,71.2
		c0,27.91-9.79,51.64-29.35,71.2c-19.57,19.57-43.3,29.35-71.2,29.35c-27.91,0-51.64-9.78-71.2-29.35
		c-19.57-19.56-29.35-43.3-29.35-71.2c0-27.9,9.78-51.64,29.35-71.2c19.56-19.56,43.3-29.35,71.2-29.35
		C227.9,99.45,251.63,109.23,271.2,128.8z M246.19,246.19c12.76-12.76,19.14-28.16,19.14-46.19c0-18.03-6.38-33.43-19.14-46.19
		c-12.76-12.76-28.16-19.14-46.19-19.14c-18.04,0-33.43,6.38-46.19,19.14c-12.76,12.76-19.14,28.16-19.14,46.19
		c0,18.04,6.38,33.43,19.14,46.19s28.16,19.14,46.19,19.14C218.03,265.33,233.43,258.95,246.19,246.19z M321.22,78.78
		c4.59,4.59,6.89,10.12,6.89,16.59c0,6.47-2.3,11.99-6.89,16.59c-4.6,4.59-10.12,6.89-16.59,6.89c-6.47,0-11.99-2.3-16.59-6.89
		c-4.59-4.59-6.89-10.12-6.89-16.59c0-6.46,2.3-11.99,6.89-16.59c4.59-4.59,10.12-6.89,16.59-6.89
		C311.1,71.89,316.63,74.18,321.22,78.78z"/>
</g>
</svg>
