<svg xmlns="http://www.w3.org/2000/svg" fill="#fff" width="246" height="77" viewBox="0 0 246 77" class="svg replaced-svg"><path d="M240.2 18.1v-2.8h-0.9v-0.7h2.7v0.7h-0.9v2.8H240.2zM245.2 18.1l-0.1-1.3c0-0.4 0-0.9 0-1.4 -0.1 0.4-0.3 0.9-0.4 1.3l-0.4 1.4h-0.6l-0.4-1.3c-0.1-0.4-0.2-0.9-0.3-1.4 0 0.5 0 1-0.1 1.4l-0.1 1.3h-0.7l0.2-3.5h1l0.3 1.2c0.1 0.4 0.2 0.8 0.3 1.2 0.1-0.4 0.2-0.9 0.3-1.2l0.4-1.2h1l0.2 3.5H245.2z"></path><path d="M232 33.4c0.2 0 0.5-0.2 0.6-0.5 0.8-2.8 1.2-5 1.1-6.8 -0.1-3.3-1.7-5-4.8-5 -2.2 0-4.5 1.2-6.9 3.5 -2.1 2.1-3.9 4.7-5.2 7.9 -0.2 0.4 0.1 0.9 0.6 0.9H232zM214.7 38.9c-0.2 0-0.5 0.2-0.6 0.4 -1.3 4-1.8 7.2-1.4 9.7 0.4 2.5 2 3.8 4.7 3.8 2.5 0 5-1.2 7.3-3.6 1.3-1.3 2.5-2.9 3.5-4.6 0-0.1 0.2-0.2 0.3-0.2l4.1 0c0.3 0 0.4 0.2 0.3 0.4 -0.7 1.4-1.6 2.9-2.9 4.6 -1.4 1.9-2.7 3.4-4 4.6 -2.2 2.1-4.5 3.4-7 4.2 -1.3 0.4-2.7 0.6-4.2 0.6 -3.6 0-6-1.9-7.1-5.6 -1.1-3.8-0.5-9 1.9-15.7 2.4-6.6 5.6-12 9.6-16.2 4-4.1 8-6.2 12.1-6.2 2.1 0 3.8 0.7 5.2 2.1 1.4 1.4 2.3 3.1 2.5 5.3 0.2 2.1 0 4.5-0.7 7.3 -0.4 1.9-1.3 4.8-2.8 8.9 0 0.1-0.2 0.2-0.3 0.2L214.7 38.9zM203.1 36.5c1.9-5.1 2.5-8.9 1.9-11.4 -0.6-2.5-2-3.7-4.3-3.7 -3.4 0-6.6 2.3-9.5 6.9 -1.6 2.4-3.1 5.6-4.5 9.6 -1.7 4.7-2.3 8.2-1.9 10.6 0.5 2.4 1.8 3.6 4 3.6 3.5 0 6.8-2.2 9.8-6.7C200.4 42.9 201.8 39.9 203.1 36.5M214.4 16.5c0.2 0 0.4 0.2 0.3 0.4l-13.4 37.1c-1.9 5.2-3.9 9.4-6.1 12.4 -4 5.6-8.9 8.4-14.5 8.4 -3.1 0-5.4-1-6.8-3 -1.4-1.9-1.5-5-0.3-9.1 0-0.1 0.2-0.2 0.3-0.2l4.3 0c0.2 0 0.4 0.2 0.3 0.4 -0.3 1.7-0.4 3 0 3.9 0.5 1.5 2 2.3 4.3 2.3 3.7 0 6.8-1.9 9.3-5.6 1.2-1.8 2.6-4.8 4.1-8.9 0.3-0.7-0.5-1.2-1-0.7 -1 1-2.1 1.8-3.1 2.4 -1.7 1-3.7 1.5-6 1.5 -3.1 0-5.3-1.6-6.5-4.7 -1.2-3.2-0.5-8.4 2.2-15.8 2.5-6.9 5.6-12.3 9.4-16.2 3.8-3.9 7.3-5.8 10.7-5.8 2.3 0 4 0.8 5.1 2.4 0.3 0.5 0.6 1.2 0.9 2 0.2 0.6 1 0.7 1.2 0l1.1-3.1c0-0.1 0.2-0.2 0.3-0.2L214.4 16.5zM167.5 16.1c0.2 0 0.4 0.2 0.3 0.4l-1 2.8c-0.2 0.7 0.5 1.2 1 0.7 1.5-1.4 2.9-2.5 4.2-3.2 1.9-1.1 3.8-1.6 5.7-1.6 4.1 0 6.1 2 6.1 6.1 0 2.2-0.8 5.4-2.2 9.6l-9.5 26.3c0 0.1-0.2 0.2-0.3 0.2l-4.3 0c-0.2 0-0.4-0.2-0.3-0.4l9.2-25.6c0.9-2.5 1.4-4.5 1.4-6.1 0.1-2.6-1-3.9-3.3-3.9 -1.2 0-2.2 0.2-3 0.5 -1.5 0.6-3.1 1.7-4.7 3.4 -1.3 1.4-2.3 2.8-3.1 4.2 -0.8 1.4-1.6 3.5-2.6 6.2l-7.7 21.4c0 0.1-0.2 0.2-0.3 0.2l-4.2 0c-0.2 0-0.4-0.2-0.3-0.4l14.7-40.7c0-0.1 0.2-0.2 0.3-0.2L167.5 16.1zM80.3 30.8c-0.1 1.6-0.1 3.7-0.1 6.3 0 2.6 0 4.7 0.1 6.4 0.1 1.6 0.3 2.9 0.5 3.9 0.2 1 0.5 1.7 0.9 2.1 0.4 0.4 0.9 0.5 1.4 0.5 0.9 0 1.6-0.5 2-1.5 0.5-1 0.8-2.8 0.8-5.4v-2.4c0-0.2 0.1-0.3 0.3-0.3h8.1c0.2 0 0.3 0.1 0.3 0.3 0 3.1-0.2 5.8-0.6 8.1 -0.4 2.3-1.1 4.2-2 5.7 -1.8 2.8-4.8 4.1-8.9 4.1 -1.9 0-3.6-0.2-5.1-0.7 -1.5-0.5-2.9-1.4-4-2.9 -1.1-1.5-1.9-3.7-2.5-6.4 -0.6-2.8-0.9-6.4-0.9-10.9 0-4.9 0.3-8.8 1-11.8 0.7-3 1.6-5.2 2.7-6.8 1.2-1.6 2.6-2.6 4.1-3.1 1.6-0.5 3.3-0.8 5.1-0.8 2.1 0 3.9 0.4 5.3 1.3 1.4 0.8 2.6 2 3.4 3.5 0.9 1.5 1.4 3.3 1.8 5.4 0.3 2 0.5 4.3 0.5 6.7 0 0.2-0.1 0.3-0.3 0.3h-8.1c-0.2 0-0.3-0.1-0.3-0.3 0-1.5-0.1-2.8-0.2-3.8 -0.1-1.1-0.3-1.9-0.5-2.6 -0.4-1.2-1.1-1.8-2.1-1.8 -0.5 0-1 0.2-1.4 0.6 -0.4 0.4-0.6 1-0.9 2.1C80.6 27.8 80.4 29.2 80.3 30.8M67.1 16.3c0.2 0 0.3 0.1 0.3 0.3v40.9c0 0.2-0.1 0.3-0.3 0.3h-9c-0.2 0-0.3-0.1-0.3-0.3v-40.9c0-0.2 0.1-0.3 0.3-0.3H67.1zM67.4 12.7c0 0.2-0.1 0.3-0.3 0.3h-9c-0.2 0-0.3-0.1-0.3-0.3v-4.9c0-0.2 0.1-0.3 0.3-0.3h9c0.2 0 0.3 0.1 0.3 0.3V12.7zM30.3 47.7V16.7c0-0.2 0.1-0.3 0.3-0.3h9c0.2 0 0.3 0.1 0.3 0.3v27.1c0 1.7 0.2 3 0.5 3.8 0.4 0.8 1 1.2 1.8 1.2 0.9 0 1.5-0.4 1.8-1.2 0.4-0.8 0.5-2 0.5-3.8V16.7c0-0.2 0.1-0.3 0.3-0.3h9c0.2 0 0.3 0.1 0.3 0.3v40.9c0 0.2-0.1 0.3-0.3 0.3h-8.7c-0.2 0-0.3-0.1-0.3-0.3v-2c0-0.7-0.8-0.9-1.2-0.3 -1.3 2.3-3.3 3.4-6 3.4 -1.1 0-2.1-0.2-3-0.5 -0.9-0.3-1.7-0.8-2.4-1.6 -0.7-0.9-1.2-2-1.6-3.5C30.5 51.7 30.3 49.9 30.3 47.7M131.9 52.9c0.8 0 1.5-0.5 1.8-1.3l5.8-16.4c0.2-0.4-0.1-0.8-0.6-0.8h-13.7c-0.2 0-0.5 0.2-0.6 0.4l-2.5 7.2c-0.1 0.2-0.3 0.3-0.5 0.1l-3.5-2.9c-0.1-0.1-0.1-0.3-0.1-0.3l11.1-31.3c0-0.1 0.2-0.2 0.3-0.2l4.6 0c0.3 0 0.4 0.2 0.3 0.4l-7.4 20.5c-0.2 0.4 0.1 0.8 0.6 0.8h13.7c0.2 0 0.5-0.2 0.6-0.4l7.6-21.1c0-0.1 0.2-0.2 0.3-0.2l4.6 0c0.3 0 0.4 0.2 0.3 0.4l-17.8 49.7c0 0.1-0.2 0.2-0.3 0.2l-14.2 0.1c0 0-0.2-0.1-0.2-0.1L107.8 43.9c-0.4-0.4-1.1-0.2-1.1 0.5v13.2c0 0.2-0.1 0.3-0.3 0.3H97.3c-0.2 0-0.3-0.1-0.3-0.3V16.5c0-0.2 0.1-0.3 0.3-0.3h9c0.2 0 0.3 0.1 0.3 0.3v10.4c0 0.8 1 0.9 1.2 0.2l3.6-10.6c0-0.1 0.2-0.2 0.3-0.2l8.3 0c0.3 0 0.4 0.2 0.3 0.4l-7.3 19.6c-0.1 0.2 0 0.5 0.2 0.7l17.5 15.4C131.1 52.8 131.5 52.9 131.9 52.9M10.3 30.5c0 3.7 0 6.7 0.1 9.2 0.1 2.4 0.2 4.3 0.4 5.7 0.3 1.4 0.6 2.4 1 3 0.5 0.6 1.1 0.8 1.8 0.8 0.8 0 1.3-0.3 1.8-0.8 0.5-0.6 0.8-1.6 1-3 0.3-1.4 0.4-3.3 0.5-5.7 0.1-2.4 0.1-5.5 0.1-9.2 0-3.7 0-6.7-0.1-9.1 -0.1-2.4-0.2-4.4-0.5-5.8 -0.2-1.4-0.6-2.4-1-3 -0.4-0.6-1-0.8-1.8-0.8 -0.7 0-1.4 0.3-1.8 0.8 -0.4 0.6-0.8 1.6-1 3 -0.2 1.4-0.4 3.4-0.4 5.8C10.3 23.8 10.3 26.9 10.3 30.5M22.7 66.7l-5.5-8.4c-0.4 0.1-0.9 0.2-1.3 0.2 -0.4 0.1-0.8 0.2-1.3 0.2h-1c-2.5 0-4.7-0.5-6.4-1.5 -1.7-1-3.2-2.6-4.2-4.8 -1.1-2.3-1.8-5.2-2.3-8.8C0.2 40 0 35.6 0 30.5c0-5.1 0.2-9.4 0.7-13 0.5-3.6 1.2-6.5 2.3-8.8 1.1-2.3 2.5-3.9 4.2-5 1.7-1.1 3.9-1.6 6.4-1.6 2.5 0 4.7 0.5 6.4 1.6 1.7 1 3.2 2.7 4.2 5 1.1 2.2 1.8 5.2 2.3 8.8 0.5 3.6 0.7 7.9 0.7 13 0 5.3-0.2 9.7-0.7 13.3 -0.5 3.6-1.3 6.6-2.5 8.9l4.6 6.6L22.7 66.7zM156.3 13c-0.2 0-0.4-0.2-0.3-0.4l1.7-4.9c0-0.1 0.2-0.2 0.3-0.2l4.5 0c0.2 0 0.4 0.2 0.3 0.4l-1.7 5c0 0.1-0.2 0.2-0.3 0.2L156.3 13zM159.6 16.3c0.2 0 0.4 0.2 0.3 0.4l-14.6 40.5c0 0.1-0.2 0.2-0.3 0.2l-4.3 0c-0.2 0-0.4-0.2-0.3-0.4l14.6-40.5c0-0.1 0.2-0.2 0.3-0.2L159.6 16.3z"></path></svg>