<svg xmlns="http://www.w3.org/2000/svg" fill="white" width="246" height="77" viewBox="0 0 246 77" class="svg replaced-svg">
                <rect x="63.4" y="18.6" width="6.1" height="5.5"></rect>
                <path d="M27.4 19.5h-6.1v7h-2.5v5h2.5v12.8c0 5.6 1.2 6.5 5.4 6.5 1.2 0 2.3-0.1 3.5-0.3v-4.8c-0.3 0-0.6 0.1-0.9 0.1 -1.4 0-2-0.5-2-2.2V31.5h2.8v-5h-2.8V19.5z"></path>
                <path d="M101.5 26c-2.1 0-3.7 0.9-4.7 3.2h-0.1V18.9h-6.1v31.6h6.1V34.9c0-2.3 1-3.4 2.2-3.4 1.1 0 1.8 1 1.8 2.7v16.3h6.1V32.6C106.8 28 105 26 101.5 26z"></path>
                <path d="M82.5 29.8h-0.1c-0.7-2.2-2.1-3.9-4.8-3.9 -5.3 0-6 6.6-6 12.3 0 6.6 1.3 11.7 5.7 11.7 2.1 0 4-0.8 4.8-3.5h0.1v1.5c0 4.6-0.4 6.1-2.5 6.1 -0.6 0-1.1-0.2-1.5-0.5 -0.3-0.3-0.5-0.8-0.6-1.5h-5.7c0 3.6 1.7 6.6 7.7 6.6 6.5 0 8.5-3.6 8.5-9v-23.1h-5.7V29.8zM80 44.7c-1.7 0-2.2-1.6-2.2-6.6 0-3.9 0.3-6.7 2.3-6.7 1.8 0 2.2 2.1 2.2 6.5C82.3 43.3 81.6 44.7 80 44.7z"></path>
                <polygon points="202.6 18.9 199.9 18.9 199 23.4 201.7 23.4 "></polygon>
                <path d="M6.5 26.7c0-2.3 0.9-3.4 2.5-3.4 0.9 0 1.5 0.4 1.9 1.1 0.4 0.7 0.5 1.8 0.5 3.3h6.1V26.9c0-4.9-2.3-8.6-8.6-8.6 -6.5 0-8.8 4.3-8.8 9.3 0 11.8 11.6 8 11.6 14.8 0 1.8-0.6 3.8-2.9 3.8 -2.2 0-2.8-1.8-2.8-4.2v-1.1H0v2c0 6.6 4.3 8.2 8.9 8.2 5.8 0 9.2-2.9 9.2-10.1C18.1 30 6.5 33.3 6.5 26.7z"></path>
                <path d="M38.4 30h-0.1v-3.4h-5.9v24h6.1V37c0-3.1 1.6-4.3 4-4.3 0.6 0 1.1 0 1.7 0.2v-6.7c-0.4-0.1-0.7-0.1-1-0.1C40.7 26 39.1 27.8 38.4 30z"></path>
                <path d="M60.7 33.1c0-5-2.2-7.1-7.2-7.1 -2.5 0-4.3 0.4-5.7 1.6 -1.4 1.2-2.3 3.1-2.3 6.4h5.4c0-2.1 0.5-3.3 2.2-3.3 1.4 0 1.9 0.9 1.9 2.4 0 1.8-0.3 2.2-2.2 2.7 -1.7 0.5-4 1-5.5 1.9 -1.5 1-2.5 3.3-2.5 6.1 0 5.2 2 7.3 5.4 7.3 2 0 4-1.2 4.8-3.4h0.1c0 0.9 0.1 1.9 0.3 2.7h5.9c-0.7-1.1-0.7-3.4-0.7-5.2V33.1zM55 42.9c0 2.4-1.2 3.3-2.5 3.3 -1.1 0-1.8-1.2-1.8-3.1 0-1.3 0.3-2.1 0.9-2.7 0.6-0.5 1.4-0.6 3.3-1.8C55 39.7 55 40.9 55 42.9z"></path>
                <polygon points="151.4 18.9 148.7 18.9 147.8 23.4 150.4 23.4 "></polygon>
                <rect x="63.4" y="26.6" width="6.1" height="24"></rect>
                <path d="M213.1 26.5c-2.4 0-5 1.2-6.9 3.8h-0.1l0.7-3.3h-2.4l-5 23.5h2.7l3.4-15.8c0.8-3.6 3.4-6 6.5-6 2.7 0 3.7 1.6 3 4.8l-3.6 17h2.7l3.8-17.8C218.7 28.4 216.7 26.5 213.1 26.5z"></path>
                <path d="M187.4 46.1l3.6-16.9h4.2l0.5-2.2h-4.2l1.4-6.5h-2.7l-1.4 6.5h-3.2l-0.5 2.2h3.2l-3.7 17.5c-0.7 3.1 0.5 4.1 4.1 4.1 0.9 0 1.6-0.1 1.9-0.3l0.5-2.2c-0.6 0.2-1.2 0.3-1.7 0.3C187.6 48.6 187 48 187.4 46.1z"></path>
                <polygon points="198.2 27 193.2 50.5 195.9 50.5 200.9 27 "></polygon>
                <path d="M233.8 30.7h-0.1c-0.3-2.7-2-4.2-4.6-4.2 -5.2 0-8.4 4.2-10.2 12.3 -2 9.4 1.1 11.8 4.8 11.8 2.4 0 4.9-1.3 6.4-4.2h0.1l-0.8 3.7c-0.9 4.2-3.1 6.4-6.3 6.4 -2.4 0-4.2-1.3-3.7-3.5h-2.7c-0.7 3.4 1.2 5.8 5.8 5.8 5.3 0 8.4-3.3 9.8-9.8l4.7-21.8h-2.4L233.8 30.7zM231.8 38.5c-1.6 7.5-4 9.8-7.1 9.8 -3.2 0-4.5-2.3-2.9-9.8 1.6-7.5 4-9.8 7.1-9.8C232.1 28.7 233.4 31 231.8 38.5z"></path>
                <polygon points="147 27 142 50.5 144.7 50.5 149.7 27 "></polygon>
                <path d="M136.6 32.8H124.6l2.5-11.5h12.9l0.5-2.4h-15.7l-5.7 26.9c-0.1 0-0.2 0-0.3 0 -1.4 0-2-0.5-2-2.2V31.5h2.8v-5h-2.8v-7h-6.1v7h-2.5v5h2.5v12.8c0 5.6 1.2 6.5 5.4 6.5 1.2 0 2.3-0.1 3.5-0.3h1.3l3.3-15.3h12L136.6 32.8z"></path>
                <polygon points="142.8 18.9 136 50.5 138.7 50.5 145.5 18.9 "></polygon>
                <path d="M165 27l-0.8 3.6h-0.1c-0.3-2.7-2-4.2-4.6-4.2 -5.2 0-8.4 4.2-10.2 12.3 -2 9.4 1.1 11.8 4.8 11.8 2.4 0 4.9-1.3 6.4-4.2h0.1l-0.8 3.7c-0.9 4.2-3.1 6.4-6.3 6.4 -2.4 0-4.2-1.3-3.7-3.5h-2.7c-0.7 3.4 1.2 5.8 5.8 5.8 5.3 0 8.4-3.3 9.8-9.8l4.7-21.8H165zM162.2 38.5c-1.6 7.5-4 9.8-7.1 9.8s-4.5-2.3-2.9-9.8c1.6-7.5 4-9.8 7.1-9.8C162.5 28.7 163.8 31 162.2 38.5z"></path>
                <path d="M178.9 26.5c-2.8 0-5.4 1.4-6.6 3.8h-0.1l2.4-11.4h-2.7l-6.7 31.6h2.7l3.4-15.8c0.8-3.6 3.4-6 6.5-6 2.7 0 3.7 1.6 3 4.8l-3.6 17h2.7l3.8-17.8C184.6 28.4 182.5 26.5 178.9 26.5z"></path>
                <polygon points="239.9 24.4 241 24.4 241 27.3 241.4 27.3 241.4 24.4 242.5 24.4 242.5 24.1 239.9 24.1 "></polygon>
                <path d="M245.4 24.1l-0.9 2.7 -0.9-2.7h-0.6v3.2h0.4v-1.9c0-0.1 0-0.2 0-0.4 0-0.2 0-0.3 0-0.4v-0.1l0.9 2.7h0.4l0.9-2.7c0 0.2 0 0.3 0 0.5 0 0.2 0 0.3 0 0.3v1.9H246v-3.2H245.4z"></path>
                </svg>