<svg xmlns="http://www.w3.org/2000/svg" fill="#ffffff" width="246" height="77" viewBox="0 0 246 77">
    <path d="M239.7 12.8V9.8H238.7V9.1h2.9v0.7h-1v3.1H239.7zM245.2 12.8l-0.1-1.4c0-0.5 0-1 0-1.5 -0.1 0.5-0.3 1-0.4 1.5l-0.5 1.5h-0.7l-0.4-1.5c-0.1-0.4-0.3-1-0.3-1.5 0 0.5-0.1 1.1-0.1 1.6l-0.1 1.4h-0.8l0.2-3.8h1.1l0.4 1.3c0.1 0.4 0.2 0.9 0.3 1.3 0.1-0.4 0.3-0.9 0.4-1.4l0.4-1.3h1.1l0.2 3.8H245.2z"></path>
    <path d="M108.1 29.8c-2 0-3.9 0.8-5.7 2.4 -1.5 1.3-2.6 3-3.3 4.9h14.5c0.2-1.8 0-3.2-0.3-4.2C112.6 30.9 111 29.8 108.1 29.8M119.5 42.3l-0.1 0.3c0 0.2-0.3 0.4-0.5 0.4H97.6c-0.4 2.7-0.2 4.7 0.6 6.2 0.7 1.5 2.2 2.3 4.8 2.3 2.4 0 4.4-0.8 6.2-2.4 1-1 1.9-2.1 2.5-3.3l0.1-0.2c0.1-0.1 0.3-0.3 0.4-0.3h5.8c0.4 0 0.6 0.3 0.4 0.6l-0.2 0.6c-0.4 1.2-1.2 2.6-2.2 4 -1 1.4-2.2 2.6-3.3 3.6 -2 1.6-4.2 2.7-6.7 3.3 -1.4 0.3-2.8 0.5-4.4 0.5 -4 0-7.1-1.5-9.3-4.5 -2.2-3.1-2.6-7.3-1.5-12.4 1.1-5.1 3.3-9.3 6.7-12.5 3.4-3.2 7.3-4.9 11.8-4.9 2.3 0 4.4 0.6 6.3 1.7 1.9 1.1 3.3 2.6 4 4.4 0.7 1.7 1 3.6 0.9 5.8C120.6 36.9 120.2 39.2 119.5 42.3M77.2 29.8c-2 0-3.9 0.8-5.7 2.4 -1.5 1.3-2.6 3-3.3 4.9h14.5c0.2-1.8 0-3.2-0.3-4.2C81.7 30.9 80.1 29.8 77.2 29.8M88.6 42.3l-0.1 0.3c0 0.2-0.3 0.4-0.5 0.4H66.7c-0.4 2.7-0.2 4.7 0.6 6.2 0.7 1.5 2.2 2.3 4.8 2.3 2.4 0 4.4-0.8 6.2-2.4 1-1 1.9-2.1 2.5-3.3l0.1-0.2c0.1-0.1 0.3-0.3 0.4-0.3h5.8c0.4 0 0.6 0.3 0.4 0.6l-0.2 0.6c-0.4 1.2-1.2 2.6-2.2 4 -1 1.4-2.2 2.6-3.3 3.6 -2 1.6-4.2 2.7-6.7 3.3 -1.4 0.3-2.8 0.5-4.4 0.5 -4 0-7.1-1.5-9.3-4.5 -2.2-3.1-2.6-7.3-1.5-12.4 1.1-5.1 3.3-9.3 6.7-12.5 3.4-3.2 7.3-4.9 11.8-4.9 2.3 0 4.4 0.6 6.3 1.7 1.9 1.1 3.3 2.6 4 4.4 0.7 1.7 1 3.6 0.9 5.8C89.6 36.9 89.3 39.2 88.6 42.3M53.8 27.2c0.4-0.4 0.9-0.8 1.5-1.3 2-1.6 4.1-2.4 6.3-2.4 0.1 0 0.3 0 0.6 0 0.2 0 0.6 0.1 1.1 0.1l0.5 0.1c0.3 0 0.5 0.3 0.4 0.6l-1.3 6.4c0 0.2-0.3 0.4-0.5 0.4l-0.4-0.1c-0.3 0-0.5-0.1-0.7-0.1 -0.2 0-0.5 0-0.7 0 -2.3 0-4.2 0.8-5.7 2.3 -1.6 1.6-2.6 3.3-3 5.3L47.8 56.3c0 0.2-0.3 0.4-0.5 0.4H41.4c-0.3 0-0.5-0.2-0.5-0.6l6.8-31.6c0-0.2 0.3-0.4 0.5-0.4h5.7c0.3 0 0.5 0.2 0.5 0.6L53.8 27.2zM44.9 26c0 0.2-0.3 0.4-0.5 0.4H28.6l-1.8 8.2h15.6c0.3 0 0.5 0.3 0.5 0.6l-1.2 5.5c0 0.2-0.3 0.4-0.5 0.4H25.4l-3.3 15.4c0 0.2-0.3 0.4-0.5 0.4h-6.3c-0.3 0-0.5-0.2-0.5-0.6l7.9-36.2c0-0.2 0.3-0.4 0.5-0.4h22.4c0.3 0 0.5 0.3 0.5 0.6L44.9 26z"></path>
    <path d="M222.6 20.3l17.2 18.3 -23.6 19.1c0.4-0.4 0.8-0.8 1.2-1.2 4-4.3 6.3-9.9 7.7-16 1.3-5.8 1.6-12.1-0.9-17.5C223.7 22 223.2 21.1 222.6 20.3M200.5 27.3c2.5-2.6 5.2-4 8.3-4 3.1 0 5.1 1.3 6.3 3.8 1.2 2.5 1.3 6.2 0.3 11.3 -1.1 5-2.9 8.8-5.3 11.5 -2.4 2.6-5.2 4-8.3 4 -3.1 0-5.2-1.3-6.4-3.8 -1.2-2.5-1.4-6.2-0.2-11.3C196.3 33.7 198.1 29.9 200.5 27.3M179.5 55c0-0.2-0.1-0.4-0.3-0.4h-11.4c-1.1 0-1.9-1-1.7-2.1l8.1-37.7c0-0.2-0.1-0.4-0.3-0.4h-8.5c-0.1 0-0.3 0.1-0.3 0.3l-10.2 47.3c0 0.2 0.1 0.4 0.3 0.4h22.5c0.1 0 0.3-0.1 0.3-0.3L179.5 55zM222.6 9.4c5.7 0.2 10.1 1.4 13.2 3.5 0.4 0.3 0.3 0.6-0.2 0.6l-11.8 0c-0.5 0-12.3 0-12.8 0 -0.3 0-0.7 0-1 0 -1.9 0.1-3.7 0.4-5.4 0.8 -3 0.9-5.7 2.4-8 4.6 -5 4.3-8.5 10.7-10.3 19.1 -1.8 8.3-1.2 14.8 2 19.3 1.7 2.7 4.4 4.4 8 5.1 1.3 0.2 2.6 0.4 4.1 0.4 0.5 0 12.4 0 12.9 0l14.4 0c0.5 0 0.6 0.3 0.2 0.6 -3.7 2.6-7.9 4-12.3 4H13.5c-5.1 0-9.7-1.6-13.3-4.3 -0.4-0.3-0.3-0.6 0.2-0.6l125.7 0c0.1 0 0.3-0.1 0.3-0.3l3.8-18.7c0.2-0.8 0.9-1.4 1.7-1.4h18.9c0.1 0 0.3-0.1 0.3-0.3l1.6-7.7c0-0.2-0.1-0.4-0.3-0.4h-18c-1.1 0-1.9-1-1.7-2.1l1.5-7.5c0.2-0.8 0.9-1.4 1.7-1.4h18.9c0.1 0 0.3-0.1 0.3-0.3l1.6-7.7c0-0.2-0.1-0.4-0.3-0.4L6.4 14.3c-0.5 0-0.6-0.3-0.2-0.6 4.3-2.7 9.2-4.3 14.4-4.3H222.6z"></path>
</svg>