<?xml version="1.0" encoding="UTF-8"?>
<svg id="Layer_2" data-name="Layer 2" xmlns="http://www.w3.org/2000/svg" xmlns:xlink="http://www.w3.org/1999/xlink" viewBox="0 0 315.87 84.21">
  <defs>
    <style>
      .cls-1 {
        fill: #fff;
      }

      .cls-2 {
        clip-path: url(#clippath-2);
      }

      .cls-3 {
        clip-path: url(#clippath-1);
      }

      .cls-4 {
        clip-path: url(#clippath-4);
      }

      .cls-5 {
        clip-path: url(#clippath);
      }

      .cls-6 {
        fill: none;
      }

      .cls-7 {
        clip-path: url(#clippath-3);
      }
    </style>
    <clipPath id="clippath">
      <rect class="cls-6" width="315.87" height="84.21"/>
    </clipPath>
    <clipPath id="clippath-1">
      <rect class="cls-6" width="315.87" height="84.21"/>
    </clipPath>
    <clipPath id="clippath-2">
      <rect class="cls-6" width="315.87" height="84.21"/>
    </clipPath>
    <clipPath id="clippath-3">
      <rect class="cls-6" width="315.87" height="84.21"/>
    </clipPath>
    <clipPath id="clippath-4">
      <rect class="cls-6" width="315.87" height="84.21"/>
    </clipPath>
  </defs>
  <g id="Layer_1-2" data-name="Layer 1">
    <g>
      <polygon class="cls-1" points="68.64 70.89 88.95 70.89 88.95 60.38 77.76 60.38 77.76 35.27 68.64 35.27 68.64 70.89"/>
      <g class="cls-5">
        <path class="cls-1" d="M111.37,44.31h-8.57v15.31c0,1.53,0,3.62-1.53,3.62s-1.5-2.09-1.5-3.62v-15.31h-8.57v18.47c0,5.15,1.67,8.73,6.23,8.73,2.42,0,4.76-1.48,5.78-5.2h.07v4.59h8.1v-26.59Z"/>
        <path class="cls-1" d="M114.49,70.89h8.57v-15.31c0-1.53,0-3.62,1.53-3.62s1.5,2.09,1.5,3.62v15.31h8.57v-18.47c0-5.15-1.67-8.73-6.23-8.73-2.41,0-4.76,1.48-5.78,5.21h-.07v-4.59h-8.1v26.59Z"/>
        <path class="cls-1" d="M158.47,70.89V32.62h-8.57v15.1h-.07c-1.33-2.86-3.06-4.03-5.34-4.03-5.34,0-7.55,6.28-7.55,13.47,0,7.71,2.11,14.34,7.79,14.34,2.79,0,4.53-1.48,5.72-5.46h.07v4.85h7.96Zm-8.33-13.42c0,2.5-.27,5.46-2.11,5.46s-2.18-2.96-2.18-5.77,.31-5.51,2.11-5.51c1.9,0,2.18,2.76,2.18,5.82"/>
        <path class="cls-1" d="M169.14,55.08c-.1-2.09,.34-5.25,2.31-5.25s2.15,3.21,2.15,5.25h-4.46Zm11.87,5.61v-1.58c0-8.98-2.41-15.41-9.29-15.41s-10.99,4.49-10.99,13.42,3.81,14.39,10.99,14.39c2.99,0,5.71-.46,7.99-1.53v-6.89c-1.36,1.07-3.47,1.68-5.82,1.68-2.52,0-4.59-.76-4.73-4.08h11.84Z"/>
      </g>
      <rect class="cls-1" x="183.29" y="32.62" width="8.57" height="38.27"/>
      <rect class="cls-1" x="195.26" y="32.62" width="8.57" height="38.27"/>
      <g class="cls-3">
        <path class="cls-1" d="M211.75,37.09h2.89c2.11,0,5.24,1.63,5.24,6.12s-2.65,6.28-4.76,6.28h-3.36v-12.4Zm-3.4,33.81h3.4v-16.92h3.33c4.29,0,8.4-2.81,8.4-10.71s-4.04-10.67-8.91-10.67h-6.23v38.3Z"/>
      </g>
      <rect class="cls-1" x="227.56" y="32.44" width="3.2" height="38.45"/>
      <g class="cls-2">
        <path class="cls-1" d="M237.59,50.79c1.29-1.63,3.23-2.66,5.03-2.66,3.2,0,4.29,2.3,4.29,6.79-1.26-.1-2.14-.1-3.4-.1-3.3,0-8.06,2.04-8.06,8.58,0,5.66,2.62,8.11,6.36,8.11,2.92,0,4.63-2.4,5.37-3.97h.07v3.37h2.99c-.06-.77-.13-2.14-.13-5.1v-10.77c0-7.09-2.01-10.77-6.98-10.77-2.21,0-4.11,1.02-5.71,2.45l.17,4.08Zm9.32,10c0,3.88-1.67,6.84-4.83,6.84-1.46,0-3.23-1.48-3.23-4.24,0-4.59,4.28-5,6.02-5,.68,0,1.36,.1,2.04,.1v2.3Z"/>
        <path class="cls-1" d="M254.05,70.08c1.46,1.17,3.13,1.43,4.77,1.43,3.09,0,6.06-2.55,6.06-8.11,0-8.32-7.52-6.79-7.52-12.09,0-2.14,1.43-3.16,3.06-3.16,.75,0,2.65,.66,3.37,1.33l.27-4.19c-1.26-.56-2.48-1.02-3.98-1.02-3.43,0-6.12,2.6-6.12,8.01,0,7.29,7.52,6.89,7.52,11.63,0,2.81-1.81,3.73-3.27,3.73-.92,0-2.72-.61-3.98-1.84l-.17,4.29Z"/>
        <path class="cls-1" d="M277.96,44.87h-4.59v-7.55l-3.2,1.53v6.02h-3.91v3.88h3.91v15.21c0,5.2,2.04,7.55,5.34,7.55,1.02,0,2.01-.41,2.72-.71v-4.08c-.48,.46-1.19,.92-2.18,.92-1.46,0-2.69-1.63-2.69-4.65v-14.24h4.59v-3.88Z"/>
      </g>
      <path class="cls-1" d="M282.37,70.89h3.2v-26.02h-3.2v26.02Zm3.4-38.31h-3.61v6.46h3.61v-6.46Z"/>
      <g class="cls-7">
        <path class="cls-1" d="M302.71,45.28c-.92-.56-2.59-1.02-3.88-1.02-5.31,0-8.84,5.72-8.84,13.63,0,7.45,3.6,13.62,8.84,13.62,1.16,0,2.69-.15,4.01-1.07l-.24-4.28c-.99,.97-2.35,1.48-3.44,1.48-4.12,0-5.79-5.1-5.79-9.74,0-4.95,2.01-9.75,5.58-9.75,1.02,0,2.24,.36,3.47,1.12l.27-3.98Z"/>
        <path class="cls-1" d="M305.05,70.08c1.46,1.17,3.13,1.43,4.76,1.43,3.1,0,6.06-2.55,6.06-8.11,0-8.32-7.52-6.79-7.52-12.09,0-2.14,1.43-3.16,3.06-3.16,.75,0,2.65,.66,3.37,1.33l.27-4.19c-1.26-.56-2.49-1.02-3.98-1.02-3.43,0-6.12,2.6-6.12,8.01,0,7.29,7.52,6.89,7.52,11.63,0,2.81-1.8,3.73-3.27,3.73-.91,0-2.72-.61-3.98-1.84l-.17,4.29Z"/>
        <path class="cls-1" d="M150.73,77.09l-.02-.39c0-.73-.85-1.1-2.54-1.1-2.59,0-3.89,1.34-3.89,4.01s1.44,3.89,4.32,3.89c1.18,0,2.3-.18,3.37-.53v.74c-1.22,.33-2.59,.49-4.12,.49-2.19,0-3.9-.41-5.13-1.22-1.23-.82-1.84-1.95-1.84-3.41s.6-2.6,1.8-3.4c1.21-.81,2.9-1.21,5.08-1.21,1.32,0,2.72,.13,4.23,.39v1.73h-1.24Z"/>
        <path class="cls-1" d="M161.42,84.21c-1.64,0-2.94-.42-3.91-1.25-.96-.83-1.44-1.96-1.44-3.37s.48-2.55,1.45-3.38c.97-.83,2.29-1.24,3.97-1.24s3,.41,3.97,1.24c.97,.83,1.46,1.94,1.46,3.36s-.49,2.6-1.46,3.42c-.98,.82-2.32,1.23-4.04,1.23m.11-.6c1.36,0,2.04-1.37,2.04-4.1s-.69-3.94-2.08-3.94-2.07,1.34-2.07,4.01,.7,4.03,2.11,4.03"/>
        <path class="cls-1" d="M170.98,84v-.56c.94,0,1.41-.17,1.41-.49l.05-.7v-5.29l-.05-.71c0-.33-.47-.49-1.41-.49v-.57h5.17s.82-.03,.82-.03h.86c2.82,0,4.22,.7,4.22,2.13,0,1.16-.86,1.95-2.58,2.39l2.11,2.68c.5,.64,1.04,1.01,1.62,1.1v.54h-3.53l-3.13-4.02h-.99v2.26l.04,.7c0,.18,.05,.31,.14,.37,.1,.05,.45,.1,1.04,.13v.56h-5.8Zm4.56-8.25v3.67h.49c1.95,0,2.92-.67,2.92-2.01,0-1.11-.86-1.66-2.58-1.66h-.83Z"/>
        <path class="cls-1" d="M191.14,80.24v2c0,.5,.06,.83,.18,.97,.13,.15,.63,.22,1.5,.22v.56h-6.24v-.56c.94,0,1.41-.17,1.41-.5l.04-.7v-5.29l-.04-.71c0-.3-.47-.46-1.41-.49v-.57h5.39s.9-.02,.9-.02h.74c2.84-.01,4.25,.75,4.25,2.26,0,1.88-1.96,2.82-5.89,2.82h-.83Zm0-.56h.49c2.09,0,3.13-.71,3.13-2.13,0-1.19-.91-1.79-2.72-1.79h-.9v3.92Z"/>
        <path class="cls-1" d="M207.3,84.21c-1.64,0-2.94-.42-3.91-1.25-.96-.83-1.44-1.96-1.44-3.37s.49-2.55,1.45-3.38c.97-.83,2.29-1.24,3.97-1.24s3,.41,3.97,1.24c.98,.83,1.46,1.94,1.46,3.36s-.49,2.6-1.46,3.42c-.98,.82-2.32,1.23-4.04,1.23m.11-.6c1.36,0,2.04-1.37,2.04-4.1s-.69-3.94-2.08-3.94-2.07,1.34-2.07,4.01,.7,4.03,2.11,4.03"/>
        <path class="cls-1" d="M216.87,84v-.56c.94,0,1.41-.17,1.41-.49l.05-.7v-5.29l-.05-.71c0-.33-.47-.49-1.41-.49v-.57h5.17s.82-.03,.82-.03h.86c2.82,0,4.22,.7,4.22,2.13,0,1.16-.86,1.95-2.58,2.39l2.1,2.68c.51,.64,1.04,1.01,1.62,1.1v.54h-3.53l-3.13-4.02h-.99v2.26l.05,.7c0,.18,.05,.31,.14,.37,.1,.05,.45,.1,1.05,.13v.56h-5.8Zm4.56-8.25v3.67h.49c1.94,0,2.92-.67,2.92-2.01,0-1.11-.86-1.66-2.58-1.66h-.83Z"/>
        <path class="cls-1" d="M232.06,84v-.56l.35-.03c.31-.03,.58-.22,.81-.6l.34-.55,4.02-7.29h.99l4.19,7.3,.44,.66c.22,.34,.57,.51,1.07,.51v.56h-5.46v-.56c.74,0,1.12-.09,1.12-.26,0-.12-.15-.42-.43-.91l-.43-.74h-4.06l-.41,.74c-.28,.49-.41,.79-.41,.91,0,.17,.3,.26,.91,.26v.56h-3.03Zm3.27-3.03h3.4l-1.74-3.01-1.66,3.01Z"/>
        <path class="cls-1" d="M249.42,84v-.56c.94,0,1.41-.17,1.41-.5l.06-.7v-6.35h-1.58c-.61,0-.96,.06-1.04,.17-.07,.12-.12,.36-.12,.74v.14h-.99v-1.77h10.55v1.77h-1v-.14c0-.38-.04-.62-.12-.74-.08-.12-.43-.17-1.04-.17h-1.57v6.35l.05,.7c0,.33,.47,.5,1.41,.5v.56h-6.01Z"/>
        <path class="cls-1" d="M261.21,84v-.56c.94,0,1.41-.17,1.41-.5l.05-.7v-5.29l-.05-.71c0-.33-.47-.49-1.41-.49v-.57h6.01v.57c-.94,0-1.41,.16-1.41,.49l-.05,.71v5.29l.05,.7c0,.33,.47,.5,1.41,.5v.56h-6.01Z"/>
        <path class="cls-1" d="M276.84,84.21c-1.64,0-2.94-.42-3.9-1.25-.96-.83-1.44-1.96-1.44-3.37s.48-2.55,1.45-3.38c.97-.83,2.29-1.24,3.97-1.24s3,.41,3.97,1.24c.98,.83,1.46,1.94,1.46,3.36,0,1.46-.49,2.6-1.46,3.42-.97,.82-2.32,1.23-4.04,1.23m.11-.6c1.36,0,2.04-1.37,2.04-4.1s-.69-3.94-2.08-3.94-2.07,1.34-2.07,4.01,.7,4.03,2.1,4.03"/>
        <path class="cls-1" d="M297.17,84.07l-7.76-6.02v4.19l.05,.7c0,.33,.47,.5,1.42,.5v.56h-4.47v-.56c.72,0,1.14-.07,1.27-.21,.13-.14,.19-.47,.19-.98v-5.29c0-.51-.06-.84-.19-.98-.13-.14-.55-.21-1.27-.21v-.57h3.01l7.76,6.02v-4.25l-.06-.71c0-.33-.47-.49-1.41-.49v-.57h4.47v.57c-.94,0-1.4,.16-1.4,.49l-.06,.71v7.12h-1.54Z"/>
      </g>
      <polygon class="cls-1" points="59.49 43.87 50.27 59.84 31.83 59.84 22.6 43.87 31.83 27.9 50.27 27.9 59.49 43.87"/>
      <g class="cls-4">
        <path class="cls-1" d="M0,42.1C0,18.85,18.85,0,42.11,0c11.51,0,21.94,4.62,29.54,12.11l5.83-4.89,4.37,24.79-23.66-8.61,6.38-5.36c-5.88-5.5-13.78-8.86-22.47-8.86-18.18,0-32.92,14.74-32.92,32.92s14.74,32.92,32.92,32.92c11.48,0,93.93,.03,93.93,.03v9.12s-92.46,.04-93.93,.04C18.85,84.21,0,65.36,0,42.1"/>
      </g>
      <polygon class="cls-1" points="304.29 75.06 304.29 84.16 315.53 84.12 315.53 75.04 304.29 75.06"/>
    </g>
  </g>
</svg>