<?xml version="1.0" encoding="UTF-8"?>
<svg id="Layer_2" data-name="Layer 2" xmlns="http://www.w3.org/2000/svg" viewBox="0 0 33.64 32.15">
  <defs>
    <style>
      .cls-1 {
        fill: #fff;
      }
    </style>
  </defs>
  <g id="Layer_1-2" data-name="Layer 1">
    <path class="cls-1" d="M8.1,3.75c.01,1.07-.35,1.96-1.11,2.67-.75,.72-1.74,1.07-2.97,1.07h-.04c-1.2,0-2.16-.36-2.89-1.07-.73-.71-1.09-1.61-1.09-2.67S.38,1.77,1.13,1.06,2.86,0,4.07,0s2.18,.35,2.91,1.06c.73,.71,1.1,1.6,1.12,2.68Zm-.46,6.7v21.71H.42V10.45H7.64Zm26,9.27v12.44h-7.21v-11.61c0-1.53-.3-2.73-.89-3.6-.59-.87-1.52-1.3-2.77-1.3-.92,0-1.69,.25-2.31,.76-.62,.5-1.08,1.13-1.39,1.87-.16,.44-.24,1.03-.24,1.77v12.11h-7.21c.03-5.83,.04-10.55,.04-14.17s0-5.78-.02-6.48l-.02-1.05h7.21v3.15h-.04c.29-.47,.59-.88,.9-1.23s.72-.73,1.24-1.14,1.15-.73,1.91-.95c.75-.23,1.59-.34,2.51-.34,2.5,0,4.5,.83,6.02,2.49s2.28,4.08,2.28,7.28Z"/>
  </g>
</svg>