<?xml version="1.0" encoding="UTF-8"?>
<svg id="Layer_2" data-name="Layer 2" xmlns="http://www.w3.org/2000/svg" xmlns:xlink="http://www.w3.org/1999/xlink" viewBox="0 0 692 51.64">
  <defs>
    <style>
      .cls-1 {
        fill: #fff;
      }

      .cls-2 {
        fill: #231f20;
        font-family: MinionPro-Regular, 'Minion Pro';
        font-size: 12px;
      }

      .cls-3 {
        clip-path: url(#clippath);
      }

      .cls-4 {
        fill: none;
      }
    </style>
    <clipPath id="clippath">
      <rect class="cls-4" width="692" height="51.64"/>
    </clipPath>
  </defs>
  <g id="Layer_1-2" data-name="Layer 1">
    <g class="cls-3">
      <path class="cls-1" d="M685.41,51.64c3.89,0,6.59-2.92,6.59-7.41,0-4.72-2.99-7.48-6.51-7.48s-6.59,3.14-6.59,7.48,2.99,7.41,6.44,7.41h.08Zm-11.08-31.58h-11V10.63h11.53V.6h-23.13V51.05h23.95v-10.03h-12.35v-11.38h11v-9.58Zm-50.67,30.99h23.95v-9.81h-12.35V.6h-11.6V51.05Zm-23.05-41.02c.52-.22,1.35-.37,2.1-.37,3.74,0,5.39,2.99,5.39,7.03,0,3.67-1.5,7.11-6.14,7.11-.45,0-.9,0-1.35-.08V10.03Zm-11.53,41.02h11.53v-17.96h1.72c3.89,0,9.13-1.35,12.42-4.49,2.92-2.92,4.79-7.11,4.79-12.95,0-4.19-1.35-8.53-4.57-11.3-3.59-3.22-8.46-3.97-14.82-3.97-3.97,0-8.08,.37-11.08,.97V51.05Zm-15.57,0h10.25l-3.14-50.45h-12.05l-3.22,16.17c-1.2,6.21-2.32,12.27-2.99,17.81h-.15c-.82-5.69-2.1-11.53-3.37-17.81l-3.22-16.17h-12.12l-3.89,50.45h9.8l.82-15.87c.22-4.04,.6-10.1,.82-15.42h.15c.67,5.31,1.95,11.6,2.62,14.67l3.44,15.57h8.38l3.59-15.57c.67-3.07,2.02-9.36,2.84-14.67h.15c-.07,5.31,.23,11.38,.45,15.42l.82,15.87Zm-50.45,0h11.6V.6h-11.6V51.05Zm-31.73-1.5c1.8,.97,5.84,1.95,10.18,1.95,10.63,0,17.74-6.29,17.74-15.79,0-5.16-2.32-10.48-9.28-14.37-5.69-3.22-6.74-4.64-6.74-6.81,0-2.32,1.87-4.34,5.76-4.34,2.92,0,5.09,.82,6.59,1.72l1.65-9.95c-1.57-.9-4.87-1.8-8.31-1.8-11.68,0-17.07,7.19-17.07,15.49,0,3.74,1.35,9.28,9.51,14.15,4.42,2.62,6.51,4.04,6.51,7.18,0,2.55-1.95,4.49-6.29,4.49-2.92,0-6.59-.75-8.76-1.95l-1.5,10.03Zm-13.1-29.49h-11V10.63h11.53V.6h-23.13V51.05h23.95v-10.03h-12.35v-11.38h11v-9.58Zm-47.83-10.25c.52-.22,1.05-.22,1.65-.22,5.01,0,7.18,5.99,7.18,15.34,0,12.5-3.22,17.14-7.26,17.14-.52,0-1.2,0-1.57-.15V9.81Zm-11.53,41.09c2.02,.23,5.39,.6,8.83,.6,7.56,0,12.58-1.57,16.09-4.64,4.86-4.12,7.41-11.75,7.41-21.41s-1.95-16.17-6.44-20.28c-3.44-3.22-8.16-4.79-14.97-4.79-4.34,0-8.38,.45-10.93,.97V50.9Zm-23.58-18.71l1.5-9.58c.45-2.69,1.2-8.31,1.72-11.45h.15c.45,3.14,1.12,8.61,1.5,11.45l1.27,9.58h-6.14Zm7.04,8.91l1.65,9.95h11.23L406.03,.6h-14.07l-10.7,50.45h11.23l1.72-9.95h8.16Zm-32.56,9.95h10.25l-3.14-50.45h-12.05l-3.22,16.17c-1.2,6.21-2.32,12.27-2.99,17.81h-.15c-.82-5.69-2.1-11.53-3.37-17.81l-3.22-16.17h-12.12l-3.89,50.45h9.8l.82-15.87c.22-4.04,.6-10.1,.82-15.42h.15c.67,5.31,1.95,11.6,2.62,14.67l3.44,15.57h8.38l3.59-15.57c.67-3.07,2.02-9.36,2.84-14.67h.15c-.08,5.31,.22,11.38,.45,15.42l.82,15.87Z"/>
      <path class="cls-1" d="M316.51,51.64c3.89,0,6.59-2.92,6.59-7.41,0-4.72-2.99-7.48-6.51-7.48s-6.59,3.14-6.59,7.48,2.99,7.41,6.44,7.41h.07Zm-41.31-.6h11.53v-15.57l2.02-3.82,6.06,19.38h12.65l-10.93-28.29L307.38,.6h-12.72l-5.54,15.42c-.82,2.32-1.5,4.57-2.17,6.74h-.22V.6h-11.53V51.04Zm-24.17-41.39c.45-.22,1.35-.3,2.1-.3,3.59,.15,5.02,2.92,5.02,6.59s-1.87,6.88-5.61,6.88h-1.5V9.65Zm-11.53,41.39h11.53V31.73h1.12c2.54,0,3.89,1.42,4.64,7.41,.67,5.31,1.87,10.55,2.47,11.9h12.12c-.97-1.95-2.47-9.06-3.37-14.07-.9-4.94-2.55-7.93-5.84-9.43v-.15c5.17-2.4,7.64-7.49,7.64-12.42,0-4.49-.9-7.86-4.19-10.78-3.52-3.14-8.83-3.82-14.37-3.82-4.12,0-8.38,.38-11.75,.97V51.04Zm-21.18-9.43c-3.37,0-5.16-5.99-5.01-16.09-.07-8.91,1.65-15.49,5.01-15.49s4.72,6.59,4.72,15.27c0,10.33-1.5,16.32-4.64,16.32h-.08Zm-.22,10.03c10.1,0,16.99-7.86,16.99-26.94C235.08,15.12,232.39,0,218.69,0,206.49,0,201.25,13.17,201.25,25.67s4.04,25.97,16.77,25.97h.07Zm-48.2-.6l2.7-13.02c.97-4.64,1.8-10.33,2.77-16.62h.15c.67,6.44,1.35,12.2,2.1,16.62l2.17,13.02h12.12L200.36,.6h-11.3l-1.72,18.26c-.52,5.84-1.05,11.23-1.57,17.51h-.15c-.6-6.44-1.35-11.98-2.17-17.51l-2.77-18.26h-9.28l-3.14,18.26c-.97,5.84-2.02,11.38-2.77,17.51h-.15c-.6-6.14-.9-11.98-1.42-17.51l-1.65-18.26h-12.05l8.16,50.45h11.53ZM119.53,9.8c.52-.22,1.05-.22,1.65-.22,5.01,0,7.18,5.99,7.18,15.34,0,12.5-3.22,17.14-7.26,17.14-.52,0-1.2,0-1.57-.15V9.8Zm-11.53,41.09c2.02,.22,5.39,.6,8.83,.6,7.56,0,12.57-1.57,16.09-4.64,4.86-4.12,7.41-11.75,7.41-21.41s-1.95-16.17-6.44-20.28c-3.44-3.22-8.16-4.79-14.97-4.79-4.34,0-8.38,.45-10.93,.97V50.9ZM83.82,9.65c.45-.22,1.35-.3,2.1-.3,3.59,.15,5.01,2.92,5.01,6.59s-1.87,6.88-5.61,6.88h-1.5V9.65Zm-11.53,41.39h11.53V31.73h1.12c2.54,0,3.89,1.42,4.64,7.41,.67,5.31,1.87,10.55,2.47,11.9h12.12c-.97-1.95-2.47-9.06-3.37-14.07-.9-4.94-2.55-7.93-5.84-9.43v-.15c5.16-2.4,7.63-7.49,7.63-12.42,0-4.49-.9-7.86-4.19-10.78-3.52-3.14-8.83-3.82-14.37-3.82-4.12,0-8.38,.38-11.75,.97V51.04Zm-23.58-18.86l1.5-9.58c.45-2.69,1.2-8.31,1.72-11.45h.15c.45,3.14,1.12,8.61,1.5,11.45l1.27,9.58h-6.14Zm7.03,8.91l1.65,9.95h11.23L59.43,.6h-14.07l-10.7,50.45h11.23l1.72-9.95h8.16ZM0,.6V51.04H11.6V30.99h8.53v20.06h11.6V.6h-11.6V20.21H11.6V.6H0Z"/>
      <text class="cls-2" transform="translate(241 8.72)"><tspan x="0" y="0">t</tspan></text>
    </g>
  </g>
</svg>