<svg xmlns="http://www.w3.org/2000/svg" fill="#fff" width="246" height="77" viewBox="0 0 246 77" class="svg replaced-svg"><path d="M82 64.2l5.3-5.6 5 5.6H82zM181.1 61.8v-4.3h9.6c2 0 3.5 0.2 4.5 0.5 1 0.3 1.5 0.9 1.5 1.6 0 0.8-0.5 1.3-1.5 1.7 -1 0.3-2.5 0.5-4.5 0.5H181.1zM219.2 73.8c0 0-0.5 0.2-0.6 0.2l-7 0H29.7h-6.8c-0.1 0-0.5-0.1-0.6-0.2C14.5 68.4 8.4 61 4.4 52.4c-0.3-0.8 0-1.4 0.9-1.4h18.8 193.2 18.8c0.8 0 1.2 0.6 0.9 1.4C233 61 226.8 68.4 219.2 73.8M82.9 54.9L67.8 70.1h8.8l3.1-3.4h14.9l3 3.4h9.1L91.9 54.9H82.9zM43.1 65.1h-8.5c0 0.9 0.4 1.8 1.3 2.4 0.9 0.7 2.2 1.3 3.7 1.7 1.6 0.4 3.4 0.8 5.5 1 2.1 0.2 4.2 0.3 6.4 0.3 2.7 0 5.1-0.1 7.1-0.4 2.1-0.2 3.8-0.6 5.2-1 1.4-0.4 2.5-1 3.2-1.6 0.7-0.6 1.1-1.2 1.1-1.9 0-0.9-0.5-1.6-1.4-2.1 -0.9-0.6-2-1-3.4-1.3 -1.3-0.3-2.6-0.6-4-0.7l-3.1-0.3 -6.1-0.6c-1.5-0.2-2.7-0.3-3.6-0.5 -0.9-0.2-1.4-0.3-1.7-0.5 -0.3-0.2-0.4-0.4-0.4-0.7 0-0.3 0.2-0.6 0.6-0.8 0.4-0.2 0.8-0.4 1.4-0.5 0.6-0.1 1.2-0.2 2-0.3 0.7-0.1 1.4-0.1 2.1-0.1 1.1 0 2.1 0 3 0.1 0.9 0.1 1.8 0.2 2.5 0.4 0.7 0.2 1.3 0.4 1.7 0.7 0.4 0.3 0.7 0.7 0.8 1.1h8.5c0-0.9-0.4-1.6-1.3-2.2 -0.9-0.6-2-1.1-3.5-1.5 -1.5-0.4-3.2-0.7-5.1-0.9 -1.9-0.2-3.9-0.3-6-0.3 -1.8 0-3.6 0.1-5.4 0.3 -1.8 0.2-3.4 0.5-4.8 0.9 -1.4 0.4-2.6 0.9-3.5 1.5 -0.9 0.6-1.3 1.3-1.3 2 0 0.7 0.3 1.3 1 1.8 0.7 0.5 1.6 0.9 2.7 1.2 1.1 0.3 2.4 0.6 3.8 0.8 1.4 0.2 2.9 0.4 4.4 0.5l4.3 0.4c1.4 0.1 2.7 0.3 3.8 0.5 1.1 0.2 2 0.4 2.7 0.6 0.7 0.3 1.1 0.6 1.1 1 0 0.4-0.3 0.7-0.8 1 -0.5 0.2-1.2 0.4-2 0.6 -0.8 0.1-1.6 0.2-2.5 0.3l-2.5 0.1c-1.2 0-2.3-0.1-3.4-0.2 -1.1-0.1-2-0.3-2.8-0.5 -0.8-0.2-1.4-0.5-1.9-0.9C43.4 66 43.1 65.6 43.1 65.1M172.4 54.9v15.3h8.8v-6h8.8c2.2 0 3.8 0.2 4.7 0.6 1 0.4 1.6 1 1.9 1.8 0.2 0.6 0.4 1.3 0.5 1.9 0.1 0.7 0.4 1.2 0.9 1.7h8.8c-0.4-0.2-0.7-0.5-0.9-0.8 -0.2-0.3-0.3-0.6-0.4-1l-0.2-1 -0.1-0.9c-0.1-0.4-0.2-0.8-0.4-1.2 -0.2-0.4-0.5-0.7-0.9-1 -0.4-0.3-1-0.6-1.7-0.8 -0.7-0.2-1.6-0.4-2.7-0.6 2.2-0.3 3.8-0.8 4.8-1.5 1-0.7 1.5-1.4 1.5-2.3 0-0.6-0.3-1.1-0.8-1.6 -0.5-0.5-1.3-1-2.3-1.3 -1-0.4-2.2-0.7-3.7-0.9 -1.4-0.2-3-0.3-4.8-0.3H172.4zM146.4 61v-3.3h23.5v-2.8l-32.3 0v15.3h32.3v-2.8h-23.5v-3.7h23.5V61H146.4zM122.3 70.1l13.2-15.3h-9l-9.1 10.8 -8.9-10.8h-9l12.9 15.3H122.3zM223.6 34.1c0.1-0.6-0.4-1.1-1-1.1h-17.9c-0.5 0-1 0.5-1 1v12.1c0 0.5-0.4 1-1 1l-17.5 0.2c-0.5 0-1-0.4-1-1l-0.2-33.8c0-0.5 0.4-1 1-1l17.5-0.2c0.5 0 1 0.4 1 0.9l0.2 10.8c0 0.5 0.5 1 1 1l17.4 0c0.7 0 1.1-0.5 1-1.2 -1.3-6.2-4.2-11.8-8.2-16.4 -0.7-0.8-0.3-1.6 0.7-1.6h19.2c0.2 0 0.8 0.3 0.9 0.5 4 7.5 6.1 15.8 6.1 24.7 0 5.8-0.9 11.4-2.6 16.6 -0.1 0.3-0.6 0.7-0.9 0.7l-17.4 0.1c-0.9 0-1.3-0.6-0.9-1.4C221.8 42.4 223.1 38.4 223.6 34.1M3.3 47.5c-0.3 0-0.8-0.4-0.9-0.6 -1.9-5.4-2.8-11-2.8-16.8 0-8.8 2.1-17.2 5.9-24.6 0.1-0.2 0.6-0.5 0.9-0.5l19.4-0.1c1 0 1.4 0.8 0.7 1.6 -4 4.6-6.9 10.2-8.2 16.4 -0.1 0.7 0.3 1.2 1 1.2l17.4 0c0.5 0 1-0.5 1-1V12.5c0-0.5 0.5-1 1-1l17.5-0.2c0.5 0 1 0.4 1 1l0.2 33.8c0 0.5-0.4 1-1 1l-17.5 0.2c-0.5 0-1-0.4-1-0.9l-0.2-12.4c0-0.5-0.5-1-1-1h-17.9c-0.6 0-1.1 0.5-1 1.1 0.5 4.3 1.7 8.3 3.6 12 0.4 0.8 0 1.4-0.9 1.4H3.3zM79.3 47.4l-0.5 0 -1.9 0 -6 0 -8.9 0c-0.5 0-1-0.5-1-1l-0.2-33.8c0-0.5 0.4-1 1-1l17.4-0.2c0.5 0 1 0.4 1 1l0.2 34.2C80.4 47.4 79.6 47.4 79.3 47.4M85.1 11.2l1.4 0 5 0 15.5 0 22.6 0c0.5 0 1 0.4 1 0.9l0.2 6.8c0 0.5-0.4 1-0.9 1l-11.9 0.2c-0.5 0-1 0.5-1 1v24.9c0 0.5-0.4 1-1 1l-17.5 0.2c-0.5 0-1-0.4-1-1l-0.2-25.1c0-0.5-0.5-1-1-1h-11.4c-0.5 0-1-0.4-1-0.9l-0.2-7.1C83.6 11.7 83.9 11.2 85.1 11.2M151.9 29.3c0 2.3 0.1 4.2 0.2 5.8 0.1 1.4 0.4 2.6 0.7 3.4 0.4 0.8 1 1.3 1.6 1.6 0.7 0.3 1.8 0.5 3.1 0.5 1.1 0 2-0.1 2.6-0.4 0.6-0.2 1-0.6 1.3-1.1 0.3-0.6 0.6-1.4 0.7-2.4 0.2-0.9 0.3-2.1 0.3-3.5 0-0.5 0.5-0.9 1-1l16.9-0.2c0.5 0 0.9 0.4 1 0.9l0.2 2.3c0 2.5-0.7 4.7-2.1 6.4 -1.4 1.6-3.2 2.9-5.5 3.9 -2.2 0.9-4.8 1.5-7.7 1.8 -2.8 0.3-5.7 0.5-8.7 0.5 -5.2 0-9.4-0.3-12.8-0.9 -3.4-0.6-6-1.7-8-3.2 -1.9-1.5-3.3-3.5-4.1-5.9 -0.7-2.4-1-5.2-1-8.5 0-3.4 0.4-6.3 1.2-8.6 0.9-2.4 2.4-4.4 4.5-5.9 2.1-1.5 4.8-2.5 8.1-3.2 3.3-0.7 7.3-1 12.1-1 4.2 0 7.8 0.3 10.7 0.8 2.9 0.5 5.4 1.3 7.2 2.3 1.9 1 3.3 2.2 4.2 3.7 0.9 1.4 1.3 3 1.3 4.8v1.6c0 0.5-0.4 1-1 1l-16.9 0.2c-0.5 0-0.9-0.4-1-0.9l-0.2-1.6c0-2-0.4-3.1-1-3.7 -0.6-0.6-1.7-0.9-3.4-0.9 -1.3 0-2.4 0.2-3.2 0.5 -0.6 0.3-1.2 0.9-1.5 1.6 -0.3 0.8-0.6 2-0.7 3.4C152 25.1 151.9 27 151.9 29.3"></path><path d="M239.3 8.7V5.6h-1v-0.7h2.9v0.7h-1v3.1H239.3zM244.7 8.7l-0.1-1.4c0-0.5 0-1 0-1.6 -0.1 0.5-0.3 1-0.4 1.5l-0.5 1.5h-0.7l-0.4-1.5c-0.1-0.4-0.3-1-0.3-1.5 0 0.5-0.1 1.1-0.1 1.6l-0.1 1.4h-0.8l0.2-3.8h1.1l0.4 1.3c0.1 0.4 0.2 0.9 0.3 1.4 0.1-0.4 0.3-0.9 0.4-1.4l0.4-1.3h1.1l0.2 3.8H244.7z"></path></svg>