<svg xmlns="http://www.w3.org/2000/svg" fill="#fff" width="246" height="77" viewBox="0 0 246 77" class="svg replaced-svg">
                    <polygon points="75.5 54.3 86.2 54.3 86.2 56.2 81.8 56.2 81.8 58 85.7 58 85.7 59.9 81.8 59.9 81.8 64 75.5 64 "></polygon>
                    <polygon points="96.9 54.3 96.9 62 100.7 62 100.7 64 90.6 64 90.6 54.3 "></polygon>
                    <rect x="105.1" y="54.3" width="6.3" height="9.7"></rect>
                    <path d="M131.2 57.8h-6.3v-0.9c0-0.6-0.1-0.9-0.2-1 -0.1-0.1-0.4-0.2-0.9-0.2 -0.4 0-0.7 0.1-0.8 0.2 -0.1 0.1-0.2 0.4-0.2 0.9v4.7c0 0.4 0.1 0.7 0.2 0.9 0.1 0.1 0.4 0.2 0.8 0.2 0.5 0 0.8-0.1 0.9-0.2 0.2-0.2 0.3-0.5 0.3-0.9v-1.1h-1.3v-1.5h7.4v5.2h-4l-0.6-0.7c-0.4 0.3-1 0.5-1.6 0.7 -0.6 0.1-1.4 0.2-2.3 0.2 -1.1 0-2.1-0.1-3-0.3 -0.9-0.2-1.6-0.5-2.1-0.8s-0.8-0.6-0.9-1c-0.1-0.3-0.2-0.8-0.2-1.5v-2.9c0-0.9 0.1-1.6 0.4-2 0.2-0.4 1-0.8 2.1-1.1 1.2-0.4 2.7-0.5 4.6-0.5 1.8 0 3.4 0.2 4.6 0.5 1.2 0.3 2 0.7 2.4 1.1 0.4 0.4 0.6 1 0.6 1.8V57.8z"></path>
                    <polygon points="151 54.3 151 64 144.7 64 144.7 59.9 142.8 59.9 142.8 64 136.5 64 136.5 54.3 142.8 54.3 142.8 57.7 144.7 57.7 144.7 54.3 "></polygon>
                    <polygon points="169.1 54.3 169.1 56.2 165.3 56.2 165.3 64 159 64 159 56.2 155.3 56.2 155.3 54.3 "></polygon>
                    <rect x="173.3" y="54.3" width="6.3" height="9.7"></rect>
                    <polygon points="199.1 54.3 199.1 64 193.6 64 190.3 59.5 190.3 64 185 64 185 54.3 190.3 54.3 193.8 58.6 193.8 54.3 "></polygon>
                    <path d="M218.9 57.8h-6.3v-0.9c0-0.6-0.1-0.9-0.2-1 -0.1-0.1-0.4-0.2-0.9-0.2 -0.4 0-0.7 0.1-0.8 0.2 -0.1 0.1-0.2 0.4-0.2 0.9v4.7c0 0.4 0.1 0.7 0.2 0.9 0.1 0.1 0.4 0.2 0.8 0.2 0.5 0 0.8-0.1 0.9-0.2 0.2-0.2 0.3-0.5 0.3-0.9v-1.1h-1.3v-1.5h7.4v5.2h-4l-0.6-0.7c-0.4 0.3-1 0.5-1.6 0.7 -0.6 0.1-1.4 0.2-2.3 0.2 -1.1 0-2.1-0.1-3-0.3 -0.9-0.2-1.6-0.5-2.1-0.8s-0.8-0.6-0.9-1c-0.1-0.3-0.2-0.8-0.2-1.5v-2.9c0-0.9 0.1-1.6 0.4-2 0.2-0.4 1-0.8 2.1-1.1 1.2-0.4 2.7-0.5 4.6-0.5 1.8 0 3.4 0.2 4.6 0.5 1.2 0.3 2 0.7 2.4 1.1 0.4 0.4 0.6 1 0.6 1.8V57.8z"></path>
                    <path d="M81.7 28.1v7.1c0.2 0 0.3 0 0.5 0 0.6 0 1-0.2 1.2-0.5 0.2-0.3 0.3-1 0.3-2v-2.3c0-0.9-0.1-1.6-0.4-1.9C83 28.2 82.5 28.1 81.7 28.1M75.5 23.3h6.2c1.7 0 3 0.2 3.9 0.5 0.9 0.3 1.6 0.8 2 1.3 0.5 0.6 0.8 1.3 0.9 2.1 0.2 0.8 0.2 2.1 0.3 3.8v2.4c0 1.8-0.2 3.1-0.5 3.9 -0.3 0.8-0.9 1.4-1.7 1.9 -0.8 0.4-1.9 0.7-3.3 0.7h-1.7v11.2h-6.2V23.3z"></path>
                    <path d="M97.7 30.5c0-1.3-0.1-2.1-0.2-2.5 -0.1-0.4-0.4-0.5-0.7-0.5 -0.3 0-0.6 0.1-0.7 0.4 -0.2 0.3-0.2 1.1-0.2 2.6v13c0 1.6 0.1 2.6 0.2 3 0.1 0.4 0.4 0.6 0.8 0.6 0.4 0 0.7-0.2 0.8-0.7 0.1-0.4 0.2-1.5 0.2-3.1V30.5zM103.9 39.6c0 2.8-0.1 4.8-0.2 5.9 -0.1 1.2-0.5 2.2-1.1 3.2 -0.6 1-1.4 1.7-2.4 2.2 -1 0.5-2.2 0.8-3.5 0.8 -1.3 0-2.4-0.2-3.4-0.7 -1-0.5-1.8-1.2-2.4-2.2 -0.6-1-1-2-1.1-3.2 -0.1-1.1-0.2-3.1-0.2-6v-4.8c0-2.8 0.1-4.8 0.2-5.9 0.1-1.2 0.5-2.2 1.1-3.2 0.6-1 1.4-1.7 2.4-2.2 1-0.5 2.2-0.8 3.5-0.8 1.3 0 2.4 0.2 3.4 0.7 1 0.5 1.8 1.2 2.5 2.2 0.6 1 1 2 1.1 3.2 0.1 1.1 0.2 3.1 0.2 6V39.6z"></path>
                    <polygon points="111.5 23.3 111.5 45.6 115.2 45.6 115.2 51.1 105.3 51.1 105.3 23.3 "></polygon>
                    <path d="M129 23.3l-4.5 17.7v10.1h-5.7V41.1l-4.4-17.7h5.7c0.9 5.4 1.4 9.1 1.5 10.9 0.3-3 0.9-6.6 1.7-10.9H129z"></path>
                    <path d="M148 35.4h-6.2v-4.8c0-1.4-0.1-2.3-0.2-2.6 -0.1-0.4-0.4-0.5-0.9-0.5 -0.5 0-0.8 0.2-1 0.6 -0.1 0.4-0.2 1.3-0.2 2.7v12.9c0 1.4 0.1 2.2 0.2 2.6 0.1 0.4 0.4 0.6 0.9 0.6 0.5 0 0.8-0.2 0.9-0.6 0.1-0.4 0.2-1.4 0.2-2.9v-3.5h6.2v1.1c0 2.9-0.2 4.9-0.5 6.1 -0.3 1.2-1.1 2.3-2.3 3.2 -1.2 0.9-2.7 1.4-4.4 1.4 -1.8 0-3.3-0.4-4.5-1.1 -1.2-0.8-2-1.8-2.3-3.2 -0.4-1.4-0.6-3.4-0.6-6.1v-8.1c0-2 0.1-3.5 0.2-4.5 0.1-1 0.5-2 1-2.9 0.6-0.9 1.4-1.7 2.4-2.2 1-0.5 2.2-0.8 3.6-0.8 1.8 0 3.3 0.4 4.5 1.2 1.2 0.8 2 1.9 2.3 3.1 0.4 1.2 0.6 3.1 0.6 5.7V35.4z"></path>
                    <path d="M163.4 23.3v18.6c0 2.1-0.1 3.6-0.2 4.4 -0.1 0.8-0.5 1.7-1 2.6 -0.6 0.9-1.3 1.6-2.3 2 -0.9 0.5-2.1 0.7-3.3 0.7 -1.4 0-2.7-0.3-3.8-0.8s-1.9-1.3-2.4-2.1c-0.5-0.9-0.9-1.8-1-2.8 -0.1-1-0.1-3-0.1-6.2V23.3h6.2v20.8c0 1.2 0.1 2 0.2 2.3 0.1 0.3 0.3 0.5 0.7 0.5 0.4 0 0.6-0.2 0.8-0.5 0.1-0.4 0.2-1.3 0.2-2.6V23.3H163.4z"></path>
                    <path d="M171.1 28.1v7.1c0.2 0 0.3 0 0.5 0 0.6 0 1-0.2 1.2-0.5 0.2-0.3 0.3-1 0.3-2v-2.3c0-0.9-0.1-1.6-0.4-1.9C172.4 28.2 171.9 28.1 171.1 28.1M164.9 23.3h6.2c1.7 0 3 0.2 3.9 0.5 0.9 0.3 1.6 0.8 2 1.3 0.5 0.6 0.8 1.3 0.9 2.1 0.2 0.8 0.2 2.1 0.2 3.8v2.4c0 1.8-0.2 3.1-0.5 3.9 -0.3 0.8-0.9 1.4-1.7 1.9 -0.8 0.4-1.9 0.7-3.3 0.7h-1.7v11.2h-6.2V23.3z"></path>
                    <path d="M185.3 28.1v7.1c0.2 0 0.3 0 0.5 0 0.6 0 1-0.2 1.2-0.5 0.2-0.3 0.3-1 0.3-2v-2.3c0-0.9-0.1-1.6-0.4-1.9C186.6 28.2 186.1 28.1 185.3 28.1M179.1 23.3h6.2c1.7 0 3 0.2 3.9 0.5 0.9 0.3 1.6 0.8 2 1.3 0.5 0.6 0.8 1.3 0.9 2.1 0.2 0.8 0.2 2.1 0.3 3.8v2.4c0 1.8-0.2 3.1-0.5 3.9 -0.3 0.8-0.9 1.4-1.7 1.9 -0.8 0.4-1.9 0.7-3.3 0.7h-1.7v11.2h-6.2V23.3z"></path>
                    <polygon points="193.3 23.3 203.6 23.3 203.6 28.9 199.5 28.9 199.5 34.2 203.4 34.2 203.4 39.4 199.5 39.4 199.5 45.6 204.1 45.6 204.1 51.1 193.3 51.1 "></polygon>
                    <path d="M211.1 28.1v18.3c0.9 0 1.4-0.2 1.6-0.6 0.2-0.4 0.3-1.6 0.3-3.4V31.5c0-1.3 0-2.1-0.1-2.4 -0.1-0.4-0.2-0.6-0.5-0.8C212.3 28.2 211.8 28.1 211.1 28.1M204.9 23.3h4.6c3 0 5 0.2 6.1 0.5 1.1 0.3 1.9 0.8 2.4 1.6 0.5 0.7 0.9 1.6 1 2.5 0.1 0.9 0.2 2.7 0.2 5.3v9.7c0 2.5-0.1 4.2-0.3 5 -0.2 0.8-0.5 1.5-1 2 -0.5 0.5-1.1 0.8-1.9 1 -0.7 0.2-1.8 0.3-3.3 0.3h-7.8V23.3z"></path>
                    <polygon points="64.6 35.8 54.8 35.8 49.8 27.2 54.8 18.7 64.6 18.7 69.5 27.2 "></polygon>
                    <path d="M24.8 32.3c0.2 17 13.3 30.8 30 31.7l0.8 0c0 0 0 0 0 0 0 0 0 0 0 0l0.2 0v0c0.8 0.1 1.4 0.9 1.4 1.8 0 0.9-0.6 1.6-1.4 1.8v0l-0.1 0c0 0-0.1 0-0.1 0 0 0 0 0 0 0 0 0 0 0 0 0 -0.7 0-2.7 0-3.1 0 -16.6-0.9-29.7-14.7-29.9-31.7 -0.1-7.4 2.1-13.6 5.7-18.5C26 21.6 24.7 26.6 24.8 32.3M86.6 19.5C80.7 7.4 68.1 0 54.2 0 38 0 17.9 12.4 18.2 36 18.5 55.2 33.3 70.9 52.3 71.9c0 0 3 0 3.6 0v4.2c0 0.9 0.9 1.2 1.5 0.6l15.1-17.6c0.3-0.3 0.3-0.8 0-1.1l-15.1-17.6c-0.6-0.7-1.5-0.3-1.5 0.6v4.3l-3.8-1c-6.1-2.7-10.4-8.8-10.5-15.9l0.5-4.5c1.8-7.9 8.9-13.8 17.4-13.8 6.9 0 12.5 3.9 15.5 9.5H86.6z"></path>
                    <polygon points="224.2 23.3 224.2 23.7 223.1 23.7 223.1 26.7 222.6 26.7 222.6 23.7 221.5 23.7 221.5 23.3 "></polygon>
                    <path d="M224.6 23.3h0.6l1 2.8 0.9-2.8h0.6v3.3h-0.4v-2c0-0.1 0-0.2 0-0.3 0-0.2 0-0.3 0-0.5l-0.9 2.8h-0.4l-1-2.8v0.1c0 0.1 0 0.2 0 0.4 0 0.2 0 0.3 0 0.4v2h-0.4V23.3z"></path>
                  </svg>