<svg xmlns="http://www.w3.org/2000/svg" fill="#fff" width="246" height="77" viewBox="0 0 246 77" class="svg replaced-svg">
                      <polygon points="219.4 40.5 219.4 40.8 218.3 40.8 218.3 43.6 217.9 43.6 217.9 40.8 216.8 40.8 216.8 40.5 "></polygon>
                      <path d="M219.8 40.5h0.6l0.9 2.7 0.9-2.7h0.6v3.2h-0.4v-1.9c0-0.1 0-0.2 0-0.3 0-0.1 0-0.3 0-0.5l-0.9 2.7h-0.4l-0.9-2.7v0.1c0 0.1 0 0.2 0 0.4 0 0.2 0 0.3 0 0.3v1.9h-0.4V40.5z"></path>
                      <path d="M108.9 41l-2.5 26.4h-7c-0.6-4-1.2-8.7-1.7-13.8 -0.2 2.2-0.7 6.8-1.5 13.8h-6.9l-0.5-5.3 1.7-1.9c0.7-0.8 0.7-2.1 0-2.9l-2.4-2.8 -1.3-13.4h5.4l0.6 9.2 0.6 8.9c0.2-4.6 0.7-10.6 1.5-18.1h5.8c0.1 0.8 0.3 3.7 0.6 8.7l0.6 10c0.3-6.4 0.8-12.6 1.6-18.7H108.9z"></path>
                      <polygon points="110 41 119.3 41 119.3 46.3 115.6 46.3 115.6 51.3 119.1 51.3 119.1 56.3 115.6 56.3 115.6 62.1 119.7 62.1 119.7 67.4 110 67.4 "></polygon>
                      <path d="M127.9 58c-0.3-3-0.6-6.7-0.8-11.1 -0.6 5-0.9 8.7-1.1 11.1H127.9zM130.9 41l3.2 26.4h-5.7l-0.3-4.7h-2l-0.3 4.7h-5.8l2.8-26.4H130.9z"></path>
                      <path d="M140.6 45.5v5.9c0.6 0 1.1-0.1 1.3-0.3 0.3-0.2 0.4-0.9 0.4-2.1v-1.4c0-0.8-0.1-1.4-0.4-1.6C141.7 45.7 141.3 45.5 140.6 45.5M135 41h3.9c2.6 0 4.4 0.1 5.3 0.4 0.9 0.3 1.7 0.9 2.3 1.9 0.6 1 0.9 2.7 0.9 4.9 0 2.1-0.2 3.4-0.6 4.1 -0.4 0.7-1.2 1.1-2.5 1.3 1.1 0.3 1.8 0.8 2.2 1.4 0.4 0.6 0.6 1.1 0.7 1.6 0.1 0.5 0.1 1.8 0.1 3.9v7h-5.2v-8.8c0-1.4-0.1-2.3-0.3-2.6 -0.2-0.3-0.6-0.5-1.4-0.5v11.9h-5.6V41z"></path>
                      <path d="M161.5 49h-5.2v-2c0-0.9-0.1-1.5-0.2-1.7 -0.1-0.2-0.4-0.4-0.7-0.4 -0.3 0-0.6 0.2-0.8 0.5 -0.2 0.3-0.3 0.8-0.3 1.5 0 0.9 0.1 1.5 0.3 2 0.2 0.4 0.7 1 1.6 1.6 2.5 1.8 4 3.3 4.7 4.5 0.6 1.2 1 3 1 5.6 0 1.9-0.2 3.3-0.5 4.2 -0.4 0.9-1 1.6-2.1 2.2 -1 0.6-2.2 0.9-3.6 0.9 -1.5 0-2.8-0.3-3.8-1 -1.1-0.7-1.7-1.6-2.1-2.7 -0.3-1.1-0.5-2.6-0.5-4.6V57.9h5.2v3.2c0 1 0.1 1.6 0.2 1.9 0.2 0.3 0.4 0.4 0.8 0.4s0.6-0.2 0.8-0.5c0.2-0.4 0.3-0.9 0.3-1.6 0-1.6-0.2-2.6-0.5-3 -0.4-0.5-1.2-1.3-2.6-2.4 -1.4-1.1-2.3-1.9-2.8-2.5 -0.5-0.5-0.8-1.2-1.1-2.1 -0.3-0.9-0.4-2.1-0.4-3.5 0-2 0.2-3.5 0.6-4.4 0.4-0.9 1.1-1.7 2-2.2 0.9-0.5 2.1-0.8 3.4-0.8 1.4 0 2.7 0.3 3.7 0.9 1 0.6 1.7 1.3 2 2.2 0.3 0.9 0.5 2.4 0.5 4.4V49z"></path>
                      <polygon points="176.5 41 176.5 67.4 170.9 67.4 170.9 56.3 169.3 56.3 169.3 67.4 163.7 67.4 163.7 41 169.3 41 169.3 50.4 170.9 50.4 170.9 41 "></polygon>
                      <path d="M185.9 47.8c0-1.2-0.1-2-0.2-2.3 -0.1-0.3-0.3-0.5-0.7-0.5 -0.3 0-0.5 0.1-0.7 0.4 -0.2 0.3-0.2 1.1-0.2 2.4v12.3c0 1.5 0 2.5 0.1 2.8 0.1 0.4 0.3 0.5 0.7 0.5 0.4 0 0.6-0.2 0.7-0.6 0.1-0.4 0.2-1.4 0.2-2.9V47.8zM191.5 56.5c0 2.7-0.1 4.5-0.2 5.6 -0.1 1.1-0.4 2.1-1 3 -0.5 0.9-1.2 1.6-2.2 2.1 -0.9 0.5-2 0.7-3.2 0.7 -1.1 0-2.2-0.2-3.1-0.7 -0.9-0.5-1.6-1.2-2.2-2.1 -0.6-0.9-0.9-1.9-1-3 -0.1-1.1-0.2-3-0.2-5.7v-4.5c0-2.6 0-4.5 0.1-5.6 0.1-1.1 0.4-2.1 1-3 0.5-0.9 1.3-1.6 2.2-2.1 0.9-0.5 2-0.7 3.2-0.7 1.1 0 2.2 0.2 3.1 0.7 0.9 0.5 1.7 1.1 2.2 2.1 0.6 0.9 0.9 1.9 1 3 0.1 1.1 0.2 3 0.2 5.7V56.5z"></path>
                      <polygon points="193.6 41 202.9 41 202.9 46.3 199.1 46.3 199.1 51.3 202.6 51.3 202.6 56.3 199.1 56.3 199.1 62.1 203.2 62.1 203.2 67.4 193.6 67.4 "></polygon>
                      <path d="M216.7 49h-5.2v-2c0-0.9-0.1-1.5-0.2-1.7 -0.1-0.2-0.4-0.4-0.7-0.4 -0.3 0-0.6 0.2-0.8 0.5 -0.2 0.3-0.3 0.8-0.3 1.5 0 0.9 0.1 1.5 0.3 2 0.2 0.4 0.7 1 1.6 1.6 2.5 1.8 4 3.3 4.7 4.5 0.6 1.2 1 3 1 5.6 0 1.9-0.2 3.3-0.5 4.2 -0.4 0.9-1 1.6-2.1 2.2 -1 0.6-2.2 0.9-3.6 0.9 -1.5 0-2.8-0.3-3.8-1 -1.1-0.7-1.7-1.6-2.1-2.7s-0.5-2.6-0.5-4.6V57.9h5.2v3.2c0 1 0.1 1.6 0.2 1.9 0.1 0.3 0.4 0.4 0.8 0.4 0.4 0 0.6-0.2 0.8-0.5 0.2-0.4 0.3-0.9 0.3-1.6 0-1.6-0.2-2.6-0.5-3 -0.4-0.5-1.2-1.3-2.6-2.4 -1.4-1.1-2.3-1.9-2.8-2.5 -0.4-0.5-0.8-1.2-1.1-2.1 -0.3-0.9-0.4-2.1-0.4-3.5 0-2 0.2-3.5 0.6-4.4 0.4-0.9 1.1-1.7 2-2.2 0.9-0.5 2.1-0.8 3.4-0.8 1.4 0 2.7 0.3 3.7 0.9 1 0.6 1.7 1.3 2 2.2 0.3 0.9 0.5 2.4 0.5 4.4V49z"></path>
                      <path d="M68.2 6.6c0 0.7-0.6 1.3-1.3 1.3 -0.7 0-1.3-0.6-1.3-1.3 0-0.7 0.6-1.3 1.3-1.3C67.6 5.2 68.2 5.8 68.2 6.6M49.1 32.6c0 1-0.8 1.8-1.8 1.8s-1.8-0.8-1.8-1.8 0.8-1.8 1.8-1.8S49.1 31.6 49.1 32.6M66.8 57.7c0-1.3 1.1-2.4 2.4-2.4 1.3 0 2.4 1.1 2.4 2.4s-1.1 2.4-2.4 2.4C67.8 60 66.8 59 66.8 57.7M103.5 19.7C97.6 7.6 85 0.2 71.1 0.2c-16.2 0-36.3 12.4-36 36 0.3 19.2 15.1 34.9 34.1 35.9 0 0 3 0 3.6 0v4.2c0 0.9 0.9 1.2 1.5 0.6l15.1-17.6c0.3-0.3 0.3-0.8 0-1.1L74.3 40.5c-0.6-0.7-1.5-0.3-1.5 0.6v4.3l-3.8-1c-6.1-2.7-10.4-8.8-10.5-15.9l0.5-4.5c1.8-7.9 8.9-13.8 17.4-13.8 6.9 0 12.5 3.9 15.5 9.5H103.5z"></path>
                      <polygon points="127 23.4 132.3 23.4 134.2 31.1 136.9 23.4 142.2 23.4 144.9 31.1 146.8 23.4 152.1 23.4 148.1 37.2 142.7 37.2 139.5 28.5 136.4 37.2 131 37.2 "></polygon>
                      <path d="M79.9 23.4h5.5v8.2c0 0.8-0.2 1.6-0.5 2.3 -0.3 0.7-0.8 1.4-1.6 1.9 -0.7 0.5-1.4 0.9-2.2 1.1 -1.1 0.3-2.4 0.5-3.9 0.5 -0.9 0-1.8 0-2.9-0.1 -1-0.1-1.9-0.3-2.6-0.6 -0.7-0.3-1.3-0.7-1.9-1.2 -0.6-0.5-1-1-1.2-1.6 -0.3-0.9-0.5-1.7-0.5-2.3v-8.2h5.5v8.4c0 0.8 0.3 1.3 0.8 1.8 0.5 0.4 1.3 0.6 2.3 0.6 1 0 1.7-0.2 2.2-0.6 0.5-0.4 0.8-1 0.8-1.8V23.4z"></path>
                      <polygon points="86.8 23.4 92.3 23.4 92.3 28.2 98.3 28.2 98.3 23.4 103.9 23.4 103.9 37.2 98.3 37.2 98.3 31.6 92.3 31.6 92.3 37.2 86.8 37.2 "></polygon>
                      <polygon points="105.7 23.4 113 23.4 115.8 31.8 118.6 23.4 125.9 23.4 125.9 37.2 121.4 37.2 121.4 26.7 117.9 37.2 113.8 37.2 110.3 26.7 110.3 37.2 105.7 37.2 "></polygon>
                    </svg>